{"glyphs":{"0":{"ha":800,"x_min":51,"x_max":751,"o":"m 51 972 l 751 972 l 751 0 l 51 0 l 51 972 m 228 488 q 241 294 228 382 q 278 146 254 207 q 334 51 301 85 q 407 17 367 17 q 480 51 447 17 q 536 146 513 85 q 573 294 560 207 q 586 488 586 382 q 573 680 586 593 q 536 828 560 767 q 480 923 513 889 q 407 957 447 957 q 334 923 367 957 q 278 828 301 889 q 241 680 254 767 q 228 488 228 593 z "},"1":{"ha":906,"x_min":53,"x_max":875,"o":"m 626 972 l 626 169 q 670 70 638 103 q 742 25 703 38 q 817 13 781 13 q 875 13 854 14 l 875 0 l 124 0 l 124 13 q 181 13 144 14 q 256 25 218 13 q 326 70 294 38 q 369 169 358 103 l 369 972 l 626 972 m 53 757 l 219 757 q 281 779 256 757 q 322 833 306 801 q 345 903 338 865 q 353 972 353 942 l 369 972 q 363 862 369 925 q 344 735 357 799 q 309 617 331 672 q 257 526 288 561 q 166 457 213 476 q 53 435 119 438 l 53 757 z "},"2":{"ha":760,"x_min":38,"x_max":707,"o":"m 38 556 q 66 737 38 658 q 142 867 94 815 q 253 946 190 919 q 383 972 315 972 q 534 948 472 972 q 634 884 596 924 q 690 795 672 844 q 707 694 707 746 q 694 592 707 644 l 694 -8 l 40 -8 l 40 326 q 267 347 167 326 q 439 417 368 368 q 548 544 510 465 q 586 742 586 624 q 552 891 586 833 q 450 949 518 949 q 378 928 410 949 q 326 874 347 907 q 294 797 306 840 q 283 710 283 754 q 318 601 283 631 q 428 569 353 572 l 536 569 l 536 556 l 38 556 m 357 10 q 422 13 394 10 q 472 21 450 15 q 513 35 494 26 q 551 58 532 44 q 613 133 589 85 q 652 246 638 182 q 672 384 667 310 q 679 535 678 458 q 592 356 649 444 q 463 196 535 268 q 310 74 392 124 q 150 10 229 24 l 357 10 z "},"3":{"ha":772,"x_min":33,"x_max":749,"o":"m 33 383 l 497 383 l 497 369 q 406 367 456 369 q 313 349 356 364 q 240 302 269 335 q 211 208 211 269 q 224 149 211 182 q 262 86 238 115 q 321 37 286 57 q 399 17 356 17 q 494 38 458 17 q 549 90 531 60 q 574 155 568 121 q 579 215 579 189 q 563 321 579 272 q 522 406 546 369 q 469 467 497 443 q 418 499 442 490 l 72 499 l 72 513 l 336 793 l 46 793 l 46 972 l 749 972 l 318 513 l 646 513 q 682 470 664 492 q 715 422 700 449 q 739 363 729 396 q 749 285 749 329 q 656 74 749 149 q 396 0 564 0 q 247 26 314 0 q 133 101 181 51 q 59 221 85 150 q 33 383 33 292 z "},"4":{"ha":1013,"x_min":36,"x_max":964,"o":"m 36 393 q 258 513 168 454 q 403 638 347 571 q 487 786 460 706 q 519 972 514 867 l 717 972 l 717 394 l 925 394 l 925 381 q 851 372 888 381 q 788 347 815 364 q 740 307 760 331 q 717 251 721 283 l 717 163 q 762 68 729 99 q 833 25 794 38 q 907 13 871 13 q 964 13 943 14 l 964 0 l 272 0 l 272 13 q 330 13 293 14 q 405 25 367 13 q 475 70 443 38 q 518 169 507 103 l 519 169 l 519 232 l 36 232 l 36 393 m 519 394 l 519 814 q 467 684 501 743 q 378 574 432 625 q 253 479 325 524 q 90 393 182 435 l 519 394 z "},"5":{"ha":883,"x_min":-35,"x_max":851,"o":"m 57 415 l 521 415 l 521 401 q 429 394 479 401 q 336 365 379 386 q 264 307 293 344 q 235 208 235 269 q 248 138 235 172 q 285 76 261 103 q 344 33 310 49 q 422 17 379 17 q 518 38 482 17 q 573 90 554 60 q 597 155 592 121 q 603 215 603 189 q 586 321 603 272 q 545 406 569 369 q 493 467 521 443 q 442 499 465 490 l 147 499 l -35 972 l 614 972 l 772 569 l 531 564 l 372 960 l 214 960 l 393 513 l 749 513 q 785 470 767 492 q 817 422 803 449 q 842 363 832 396 q 851 285 851 329 q 815 164 851 217 q 719 75 779 111 q 581 19 660 39 q 419 0 503 0 q 271 31 338 0 q 156 117 204 61 q 83 248 108 172 q 57 415 57 324 z "},"6":{"ha":711,"x_min":39,"x_max":685,"o":"m 193 24 l 207 24 l 207 536 q 240 573 218 556 q 289 603 261 590 q 347 623 317 615 q 407 631 378 631 q 608 561 532 631 q 685 343 685 492 q 646 167 685 235 q 548 63 607 100 q 420 13 489 25 q 293 0 351 0 l 39 0 l 39 960 l 654 960 l 557 688 l 225 688 q 254 764 228 729 q 313 827 281 799 q 372 877 344 856 q 406 913 400 899 q 388 935 413 928 q 289 942 363 942 l 192 942 l 193 24 m 267 303 q 321 160 267 214 q 464 106 375 106 q 544 122 508 106 q 607 166 581 138 q 647 231 633 194 q 661 310 661 268 q 647 386 661 351 q 607 447 633 421 q 544 486 581 472 q 464 500 508 500 q 321 446 375 500 q 267 303 267 392 z "},"7":{"ha":832,"x_min":43,"x_max":818,"o":"m 43 972 l 818 972 q 733 797 779 878 q 642 640 688 715 q 556 493 597 565 q 482 344 514 421 q 431 184 450 268 q 413 0 413 100 l 76 0 q 115 140 79 71 q 205 277 150 210 q 328 408 260 344 q 461 533 396 472 q 583 651 526 594 q 674 761 640 708 q 710 862 707 814 q 674 953 714 910 l 592 953 l 469 658 l 43 658 l 43 972 z "},"8":{"ha":761,"x_min":35,"x_max":725,"o":"m 35 322 q 58 440 35 397 q 126 503 82 482 q 53 617 71 547 q 35 778 35 688 q 60 898 35 856 q 130 961 85 940 q 239 986 175 982 q 381 990 303 990 q 522 986 458 990 q 630 961 585 982 q 700 898 675 940 q 725 778 725 856 q 708 617 725 686 q 635 503 690 547 q 702 440 679 482 q 725 322 725 397 q 713 183 725 246 q 665 76 701 121 q 560 7 628 32 q 381 -18 492 -18 q 200 7 268 -18 q 95 76 132 32 q 47 183 58 121 q 35 322 35 246 m 250 725 q 256 623 250 669 q 276 544 261 576 q 316 494 290 513 q 379 476 342 476 q 444 494 418 476 q 484 544 469 513 q 505 623 499 576 q 511 725 511 669 q 506 826 511 781 q 485 904 500 872 q 446 954 471 936 q 382 972 421 972 q 319 954 344 972 q 278 904 293 936 q 256 826 263 872 q 250 725 250 781 m 54 322 q 70 275 54 296 q 124 239 86 254 q 224 215 161 224 q 381 207 286 207 q 541 215 478 207 q 640 239 604 224 q 691 275 676 254 q 706 322 706 296 q 691 372 706 350 q 640 408 676 393 q 541 432 604 424 q 381 440 478 440 q 224 432 286 440 q 124 408 161 424 q 70 372 86 393 q 54 322 54 350 z "},"9":{"ha":996,"x_min":-7,"x_max":976,"o":"m 78 674 q 101 803 78 744 q 165 903 124 861 q 265 967 207 944 q 394 990 324 990 q 524 967 465 990 q 624 903 582 944 q 688 803 665 861 q 711 674 711 744 l 976 674 l 297 0 l -7 0 l 374 357 q 252 384 307 360 q 158 450 197 408 q 99 549 119 492 q 78 674 78 606 m 331 674 q 348 466 331 544 q 394 388 365 388 q 441 466 424 388 q 458 674 458 544 q 441 881 458 803 q 394 960 424 960 q 348 881 365 960 q 331 674 331 803 z "},"\u0000":{"ha":0,"x_min":0,"x_max":0,"o":""},"\r":{"ha":463,"x_min":0,"x_max":0,"o":""}," ":{"ha":386,"x_min":0,"x_max":0,"o":""},"A":{"ha":942,"x_min":-17,"x_max":950,"o":"m 818 825 q 802 750 814 796 q 774 649 790 704 q 740 533 758 593 q 705 417 722 474 q 673 310 688 360 q 650 228 658 261 q 626 58 622 115 q 663 -7 631 1 q 707 3 688 -14 q 740 51 726 21 q 760 119 753 82 q 767 189 767 156 q 758 245 767 222 q 731 269 749 268 q 701 267 714 272 q 669 238 689 261 l 664 243 q 712 300 685 272 q 768 350 739 328 q 826 386 797 372 q 876 400 854 400 q 903 393 892 400 q 943 335 936 374 q 938 249 950 296 q 897 153 925 203 q 828 64 868 104 q 742 -2 789 24 q 647 -28 696 -28 q 587 -17 618 -28 q 527 11 556 -7 q 475 53 499 29 q 438 104 451 78 l 640 678 l 625 678 q 515 381 571 514 q 407 153 460 247 q 306 7 354 58 q 217 -44 257 -44 q 112 -24 156 -44 q 40 29 68 -3 q -3 102 11 61 q -17 182 -17 143 q 36 341 -17 264 q 168 491 89 418 q 339 633 247 564 q 510 764 431 701 q 644 883 590 826 q 699 992 697 940 q 692 1017 699 1011 q 672 1024 685 1024 q 608 996 646 1024 q 527 926 571 968 q 437 834 483 883 q 344 743 390 785 q 254 673 297 701 q 176 644 211 644 q 131 658 150 644 q 99 694 111 672 q 80 742 86 717 q 74 792 74 768 q 88 926 74 865 q 121 1017 103 988 l 124 1013 q 110 947 107 975 q 127 901 113 919 q 165 875 142 883 q 214 867 189 867 q 351 894 288 867 q 472 954 414 921 q 584 1015 529 988 q 694 1042 639 1042 q 747 1030 721 1042 q 791 992 772 1018 q 818 925 810 967 q 818 825 826 883 m 665 869 l 658 876 q 490 717 572 786 q 344 583 408 649 q 238 447 279 518 q 193 282 197 376 q 212 206 190 235 q 278 178 233 178 q 365 208 325 178 q 442 291 406 239 q 508 412 478 343 q 567 558 539 481 q 619 715 594 635 q 665 869 643 794 z "},"B":{"ha":946,"x_min":-1,"x_max":936,"o":"m 161 1029 l 171 1026 q 166 970 163 1000 q 182 915 169 940 q 215 874 194 890 q 261 857 235 857 q 365 886 315 857 q 469 950 415 915 q 585 1013 524 985 q 724 1042 647 1042 q 823 1018 785 1042 q 883 959 861 994 q 913 883 906 924 q 921 810 921 843 q 899 699 921 746 q 841 617 876 651 q 763 562 806 583 q 678 527 719 540 q 602 509 638 514 q 549 503 567 504 l 550 496 q 595 498 567 496 q 658 500 624 500 q 752 492 703 500 q 842 457 801 483 q 910 380 883 431 q 936 246 936 329 q 906 103 936 163 q 828 6 876 44 q 718 -49 779 -32 q 594 -67 657 -67 q 502 -58 547 -67 q 419 -31 457 -49 q 353 13 382 -12 q 313 71 325 39 q 304 151 297 110 q 334 233 311 193 q 392 310 357 274 q 467 374 426 346 q 548 417 507 401 q 624 433 589 433 q 699 400 672 433 q 709 347 714 381 q 686 274 704 313 q 640 196 668 235 q 583 128 613 157 l 578 132 q 602 169 599 157 q 601 200 606 182 q 542 228 593 228 q 462 215 507 228 q 381 180 417 201 q 327 132 344 158 q 328 78 310 106 q 367 49 343 58 q 419 39 390 39 q 492 51 453 39 q 569 83 531 63 q 641 133 607 104 q 699 197 675 163 q 738 285 724 235 q 748 379 753 335 q 716 453 743 424 q 632 482 689 483 q 569 473 599 481 q 519 465 539 465 q 500 472 507 465 q 494 496 493 478 q 507 520 496 515 q 535 525 518 525 q 579 524 554 525 q 629 537 604 524 q 676 584 654 550 q 710 686 697 618 q 711 825 725 772 q 670 907 697 878 q 613 947 643 936 q 564 957 582 957 q 472 934 513 957 q 399 877 432 911 q 340 803 367 843 q 290 730 314 764 q 241 673 265 696 q 189 650 217 650 q 151 665 165 650 q 128 701 136 679 q 116 749 119 722 q 113 800 113 775 q 127 937 113 875 q 161 1029 142 999 m 453 803 l 589 815 q 481 590 529 700 q 388 383 432 481 q 303 206 344 286 q 215 67 261 125 q 117 -24 169 8 q -1 -57 64 -57 l 50 301 q 190 341 133 297 q 291 458 247 385 q 372 622 335 531 q 453 803 410 714 z "},"C":{"ha":733,"x_min":15,"x_max":714,"o":"m 667 1003 q 699 915 685 974 q 714 788 714 857 q 710 739 714 764 q 699 693 707 714 q 676 658 690 672 q 640 644 663 644 q 568 667 597 644 q 517 723 539 689 q 477 797 494 757 q 440 870 460 836 q 397 926 421 904 q 338 949 372 949 q 304 942 325 949 q 263 919 283 936 q 228 872 243 901 q 210 797 213 843 l 210 364 q 228 235 210 297 q 281 126 247 174 q 360 51 314 79 q 463 22 407 22 q 530 42 490 22 q 606 106 569 63 q 668 219 642 150 q 694 385 694 288 l 706 385 l 706 0 l 464 0 q 286 30 368 0 q 144 115 204 60 q 49 246 83 169 q 15 415 15 322 l 15 814 q 23 882 15 844 q 51 953 31 919 q 107 1008 71 986 q 200 1031 143 1031 q 320 1001 272 1031 q 408 936 368 972 q 485 870 447 900 q 574 840 524 840 q 617 856 597 840 q 647 894 636 871 q 662 947 658 918 q 658 1000 665 975 l 667 1003 z "},"E":{"ha":840,"x_min":4,"x_max":815,"o":"m 740 1024 q 773 937 758 996 q 788 807 788 878 q 784 758 788 783 q 772 711 781 732 q 750 676 764 690 q 714 663 736 663 q 665 684 688 663 q 618 738 642 706 q 569 807 594 769 q 512 876 543 844 q 443 930 481 908 q 357 951 406 951 q 307 945 339 951 q 247 919 275 939 q 205 860 219 899 q 207 754 190 821 q 249 664 221 697 q 312 613 276 631 q 387 590 347 594 q 465 585 426 585 q 532 586 500 585 q 588 585 564 588 q 626 574 611 582 q 640 544 640 565 q 623 513 640 521 q 579 504 606 504 q 501 512 543 504 q 428 521 458 519 q 335 495 374 522 q 276 426 296 468 q 258 333 256 385 q 292 233 261 282 q 365 142 325 181 q 448 78 406 103 q 533 40 490 53 q 615 28 576 28 q 711 50 669 28 q 772 115 753 72 q 779 185 790 156 q 741 235 768 215 q 676 264 714 254 q 604 274 639 274 q 546 265 571 274 q 515 238 521 256 q 515 208 511 221 q 538 172 518 196 l 531 168 q 477 233 503 196 q 434 308 451 271 q 413 376 417 344 q 422 426 408 408 q 460 454 438 446 q 511 463 483 463 q 622 435 563 463 q 728 359 682 407 q 794 248 774 311 q 789 113 815 185 q 743 47 775 75 q 667 1 711 19 q 569 -28 624 -18 q 458 -37 515 -37 q 297 -18 378 -37 q 150 40 215 1 q 44 139 85 79 q 4 279 4 199 q 36 401 4 353 q 118 478 68 449 q 228 522 168 508 q 344 541 288 536 q 447 545 401 546 q 511 544 492 544 l 511 553 q 449 557 493 554 q 351 569 406 560 q 238 596 297 578 q 131 644 179 614 q 51 719 82 674 q 19 828 19 764 q 27 890 19 854 q 55 958 35 925 q 111 1013 75 990 q 206 1035 147 1035 q 338 1008 279 1035 q 447 948 396 981 q 547 888 499 915 q 646 860 594 860 q 692 875 669 860 q 728 914 714 890 q 744 967 742 938 q 735 1022 747 996 l 740 1024 z "},"D":{"ha":871,"x_min":7,"x_max":832,"o":"m 108 1032 l 117 1029 q 113 976 110 1004 q 128 923 117 947 q 159 883 140 899 q 203 868 178 868 q 302 896 254 868 q 401 956 350 924 q 512 1016 453 989 q 643 1043 571 1043 q 738 1021 701 1043 q 794 967 774 999 q 823 901 815 935 q 831 842 831 867 l 832 196 q 808 96 832 135 q 742 35 783 57 q 649 5 701 13 q 538 0 596 -3 l 339 0 l 339 263 l 372 263 q 400 242 386 261 q 428 196 414 224 q 456 136 442 168 q 485 77 471 104 q 513 32 500 50 q 539 14 526 14 q 583 22 567 14 q 607 51 599 31 q 618 108 615 72 q 621 201 621 144 l 618 826 q 608 889 618 863 q 582 933 599 915 q 544 958 565 950 q 501 967 524 967 q 414 944 453 967 q 343 890 375 922 q 284 819 311 857 q 233 748 257 781 q 185 693 208 715 q 135 671 161 671 q 98 685 113 671 q 75 719 83 699 q 63 766 67 740 q 60 814 60 792 q 74 944 60 885 q 108 1032 89 1004 m 388 828 l 571 828 q 467 614 514 718 q 378 417 421 510 q 297 248 336 325 q 213 115 257 171 q 119 29 169 60 q 7 -1 69 -1 l 8 228 q 65 240 38 226 q 115 279 92 254 q 160 338 139 304 q 197 407 181 371 l 388 828 z "},"F":{"ha":849,"x_min":10,"x_max":831,"o":"m 110 1025 l 118 1022 q 115 968 111 997 q 130 915 118 939 q 160 876 142 892 q 204 860 179 860 q 303 888 256 860 q 403 948 351 915 q 513 1008 454 981 q 644 1035 572 1035 q 738 1013 701 1035 q 794 958 774 990 q 823 892 815 926 q 831 833 831 858 l 831 735 l 619 735 l 618 819 q 609 879 618 856 q 585 916 600 903 q 550 934 569 929 q 508 939 531 939 q 420 919 460 939 q 348 868 381 899 q 288 801 315 838 q 236 735 261 765 q 187 684 211 704 q 136 664 163 664 q 100 678 114 664 q 78 713 86 692 q 66 758 69 733 q 63 807 63 783 q 77 937 63 878 q 110 1025 92 996 m 389 821 l 571 821 q 497 672 531 744 q 433 529 464 599 l 449 529 q 563 519 510 529 q 655 483 615 510 q 717 406 694 456 q 740 276 740 356 l 532 279 q 531 397 532 353 q 521 466 529 442 q 496 499 513 490 q 450 507 479 507 l 422 507 q 328 302 372 396 q 236 140 283 208 q 134 32 189 71 q 10 -7 79 -7 l 11 221 l 11 529 l 257 529 l 389 821 m 22 221 q 75 238 50 222 q 122 278 100 253 q 164 334 144 303 q 199 400 183 365 l 246 506 q 135 497 179 503 q 67 478 92 490 q 32 445 42 465 q 22 394 22 425 l 22 221 z "},"G":{"ha":1039,"x_min":24,"x_max":1013,"o":"m 675 1001 q 708 915 693 974 q 722 786 722 857 q 719 739 722 764 q 708 693 717 714 q 685 658 700 672 q 649 644 671 644 q 577 667 606 644 q 528 722 549 689 q 490 794 507 756 q 456 865 474 832 q 413 921 438 899 q 354 943 389 943 q 320 938 342 943 q 277 916 299 932 q 238 872 256 900 q 218 797 221 843 l 218 364 q 237 235 218 297 q 289 124 256 172 q 369 47 322 76 q 471 18 415 18 q 635 32 561 18 q 762 86 708 46 q 849 201 815 126 q 894 397 883 275 l 804 397 q 801 490 804 454 q 790 545 799 525 q 766 573 782 565 q 724 581 750 581 q 552 580 622 581 q 435 576 482 579 q 363 565 389 572 q 323 546 336 558 q 306 514 310 533 q 301 467 303 494 l 301 338 l 290 338 l 290 596 l 722 596 q 832 588 779 596 q 925 557 885 579 q 989 497 965 535 q 1013 397 1013 458 l 910 397 l 910 0 l 472 0 q 294 30 376 0 q 152 115 213 60 q 58 246 92 169 q 24 415 24 322 l 24 813 q 31 881 24 843 q 59 953 39 919 q 115 1008 79 986 q 208 1031 151 1031 q 294 1017 257 1031 q 360 981 331 1003 q 416 935 390 960 q 467 889 442 910 q 521 853 493 868 q 582 839 549 839 q 629 854 606 839 q 668 893 653 869 q 685 944 683 917 q 667 999 686 972 l 675 1001 z "},"H":{"ha":921,"x_min":33,"x_max":860,"o":"m 590 0 l 404 0 l 400 246 l 431 246 q 456 227 443 244 q 483 183 469 210 q 510 127 496 157 q 537 72 524 97 q 563 29 550 46 q 588 13 576 13 q 628 25 613 13 q 651 67 643 38 q 661 142 658 96 q 664 256 664 189 q 660 365 664 321 q 649 434 657 408 q 626 470 640 460 q 588 481 611 481 q 476 481 529 481 q 376 479 424 481 l 376 394 q 343 220 375 294 q 261 97 311 146 q 151 23 211 47 q 33 -1 92 -1 l 35 236 l 35 501 l 175 501 l 175 972 l 376 972 l 376 501 l 586 501 q 657 494 618 501 l 657 972 l 858 972 l 858 489 l 683 489 q 752 458 719 479 q 808 406 785 438 q 846 328 832 374 q 860 219 860 282 q 838 97 860 142 q 779 29 817 51 q 693 2 742 7 q 590 0 644 -3 m 175 404 l 175 463 q 81 431 113 451 q 49 375 49 410 l 49 236 q 109 250 85 236 q 148 287 133 264 q 169 340 163 310 q 175 404 175 369 z "},"I":{"ha":554,"x_min":-7,"x_max":560,"o":"m 39 104 l 193 294 l 193 833 q 136 840 163 840 q 67 813 99 840 q 7 746 35 785 l -7 757 l 271 1043 l 514 893 l 413 768 l 413 450 l 242 260 l 413 157 q 453 166 433 157 q 489 189 472 175 q 520 219 506 203 q 546 251 535 236 l 560 240 l 282 -46 l 39 104 z "},"J":{"ha":553,"x_min":-17,"x_max":519,"o":"m 6 -81 l 6 208 l 297 208 l 297 772 q 419 841 375 797 q 474 926 463 885 q 467 999 486 968 q 400 1029 447 1029 q 349 1003 374 1029 q 301 937 325 976 q 255 851 278 897 q 206 765 232 804 q 151 699 181 725 q 86 672 121 672 q 40 686 60 672 q 8 721 21 700 q -10 767 -4 742 q -17 815 -17 793 q -2 944 -17 886 q 31 1032 13 1003 l 39 1029 q 35 978 32 1004 q 49 933 38 953 q 80 900 61 913 q 122 888 99 888 q 203 899 172 888 q 256 928 235 911 q 293 966 278 946 q 325 1003 308 986 q 364 1033 342 1021 q 421 1044 386 1044 q 468 1033 447 1044 q 501 997 489 1022 q 517 933 514 972 q 511 836 519 893 l 511 94 q 488 -20 510 32 q 432 -114 467 -72 q 353 -186 397 -156 q 263 -235 308 -217 l 6 -81 m 297 192 q 92 162 164 188 q 19 74 19 136 l 19 -74 q 110 -58 61 -72 q 200 -19 158 -43 q 269 37 242 4 q 297 106 297 69 l 297 192 z "},"K":{"ha":926,"x_min":-25,"x_max":1019,"o":"m 21 106 l 175 294 l 175 832 q 146 838 160 835 q 117 840 132 840 q 48 812 79 840 q -11 744 17 783 l -25 757 l 251 1042 l 494 893 l 393 768 l 393 519 l 578 519 q 619 609 610 558 q 628 713 628 660 q 628 819 629 767 q 635 913 626 871 q 669 982 643 954 q 751 1014 696 1010 l 1019 1015 l 1019 1004 q 896 969 933 1004 q 847 878 858 933 q 840 757 836 824 q 840 629 843 690 l 574 501 l 532 501 q 669 454 599 486 q 799 377 740 422 q 894 276 857 332 q 931 157 931 219 q 906 55 931 94 q 840 -8 882 15 q 744 -38 799 -31 q 632 -43 690 -46 l 429 -43 l 429 224 l 435 224 q 475 205 458 224 q 506 158 492 186 q 533 97 519 131 q 560 36 546 64 q 592 -10 574 8 q 633 -29 610 -29 q 677 -22 660 -29 q 704 7 694 -14 q 718 63 714 28 q 722 154 722 99 q 712 265 722 208 q 674 372 701 322 q 599 456 647 421 q 472 501 550 492 l 393 501 l 393 450 l 222 260 l 399 144 l 264 -44 l 21 106 z "},"L":{"ha":850,"x_min":-17,"x_max":822,"o":"m 26 144 l 174 326 l 174 842 q 119 849 146 849 q 53 822 83 849 q -4 758 24 794 l -17 769 l 247 1043 l 481 900 l 383 779 l 383 476 l 221 293 l 346 211 q 389 195 368 200 q 432 190 410 190 q 497 199 465 190 q 559 219 529 208 q 616 238 589 229 q 667 247 643 247 q 710 233 690 247 q 743 181 729 218 l 822 -65 l 813 -68 q 760 32 789 6 q 700 58 731 58 q 631 37 664 58 q 575 3 599 15 l 376 163 l 260 1 l 26 144 z "},"M":{"ha":1204,"x_min":36,"x_max":1156,"o":"m 343 972 l 1153 972 l 1156 183 q 1124 90 1156 126 q 1044 34 1093 54 q 936 7 994 14 q 824 0 878 0 l 36 0 l 36 311 q 92 319 64 310 q 144 347 119 328 q 188 394 168 365 q 215 457 207 422 l 343 972 m 865 958 l 739 368 q 699 252 726 300 q 633 175 672 204 q 544 133 593 146 q 438 118 494 119 q 441 72 439 90 q 453 42 443 53 q 486 24 464 31 q 551 16 508 18 q 660 14 594 14 q 825 14 726 14 q 874 21 850 14 q 917 47 899 28 q 947 101 936 67 q 958 189 958 135 l 956 958 l 865 958 m 424 311 q 477 322 451 310 q 524 358 503 335 q 562 412 546 381 q 585 478 578 443 l 685 958 l 524 958 l 378 393 q 324 267 358 318 q 247 183 290 215 q 156 135 204 150 q 58 118 107 121 q 79 58 64 79 q 134 26 94 36 q 242 15 174 17 q 424 14 311 14 l 424 311 z "},"N":{"ha":1324,"x_min":3,"x_max":1626,"o":"m 165 1032 l 174 1029 q 170 973 167 1003 q 186 918 174 943 q 218 877 199 893 q 263 861 238 861 q 363 890 315 861 q 462 953 410 918 q 576 1015 514 988 q 721 1043 638 1043 q 834 1017 781 1043 q 919 944 888 992 q 953 832 950 897 q 914 685 956 767 q 860 596 894 646 q 788 490 826 546 q 711 377 750 435 q 641 264 672 319 q 590 157 610 208 q 569 65 569 106 q 575 23 569 44 q 593 -16 581 1 q 624 -44 606 -33 q 668 -56 643 -56 q 779 -12 735 -56 q 853 102 824 31 q 902 267 882 174 q 942 462 922 361 q 983 663 961 563 q 1040 851 1006 764 q 1107 940 1061 906 q 1208 995 1153 975 q 1320 1023 1263 1015 q 1422 1031 1378 1031 l 1626 1031 l 1624 1018 q 1568 1018 1594 1018 q 1517 1015 1542 1018 q 1467 1006 1492 1013 q 1414 983 1442 999 q 1319 893 1363 956 q 1236 749 1275 831 q 1163 574 1197 667 q 1095 393 1128 481 q 1031 232 1063 306 q 968 114 1000 158 q 922 57 950 89 q 856 -3 894 25 q 771 -52 818 -32 q 667 -72 724 -72 q 584 -58 632 -72 q 492 -12 536 -43 q 416 65 447 18 q 385 179 385 113 q 417 297 385 244 q 499 393 449 349 q 609 476 549 438 q 728 551 669 514 q 834 629 786 589 q 907 717 882 669 q 927 778 922 747 q 928 835 932 810 q 892 882 924 863 q 817 915 860 901 q 726 938 774 929 q 642 950 679 946 q 533 719 585 838 q 431 488 481 600 q 331 277 381 376 q 230 103 282 178 q 122 -14 178 29 q 3 -57 65 -57 l 56 294 q 163 323 108 292 q 269 407 217 354 q 372 529 322 460 q 467 672 422 599 q 550 819 513 746 q 617 951 588 892 q 593 953 603 953 q 578 954 583 954 q 483 932 525 954 q 408 877 442 910 q 346 806 374 844 q 293 734 318 767 q 244 679 268 701 q 193 657 219 657 q 154 672 169 657 q 131 708 139 686 q 119 756 122 729 q 115 806 115 782 q 131 941 115 879 q 165 1032 146 1003 z "},"O":{"ha":1065,"x_min":-81,"x_max":1086,"o":"m 1004 558 q 1005 527 1004 549 q 1004 479 1006 506 q 951 267 1000 367 q 829 93 901 168 q 673 -25 757 18 q 515 -68 589 -68 q 385 -41 440 -68 q 292 34 331 -14 q 232 148 254 82 q 201 292 210 214 q 42 388 106 322 q -51 533 -21 454 q -76 690 -81 611 q -28 822 -71 768 q 15 861 -7 850 q 61 872 38 872 q 122 856 92 872 q 178 813 151 839 q 226 756 204 788 q 261 696 247 725 l 257 696 q 216 743 242 728 q 158 758 190 758 q 92 742 126 758 q 31 689 58 725 q -17 570 -14 635 q 12 447 -21 506 q 110 346 44 389 q 271 290 176 303 q 220 307 242 297 q 199 328 199 317 q 226 515 199 424 q 302 685 254 606 q 415 831 350 765 q 552 945 479 897 q 703 1019 625 993 q 858 1046 782 1046 q 934 1032 894 1046 q 1008 989 974 1018 q 1064 915 1042 960 q 1086 806 1086 869 q 1056 667 1086 733 q 973 542 1025 600 q 851 435 921 483 q 703 353 782 388 q 542 297 625 318 q 381 272 460 276 q 383 156 379 214 q 402 52 388 99 q 444 -24 417 6 q 515 -53 471 -53 q 610 -30 568 -53 q 683 31 651 -7 q 737 117 714 68 q 776 217 760 165 q 803 319 793 268 q 822 411 814 369 q 872 444 850 428 q 915 476 894 460 q 958 513 936 493 q 1004 558 979 533 m 456 444 q 461 532 456 483 q 481 631 467 581 q 518 727 496 681 q 573 810 540 774 q 649 866 606 846 q 747 883 693 886 q 863 852 814 879 q 942 785 911 825 q 988 694 972 744 q 1003 596 1003 644 q 1057 696 1038 644 q 1076 803 1076 747 q 1056 903 1076 861 q 1001 974 1035 946 q 924 1016 967 1003 q 839 1029 882 1029 q 701 993 767 1029 q 579 893 635 957 q 481 743 524 829 q 411 557 439 657 q 382 384 383 450 q 381 286 381 318 q 614 329 497 290 q 828 433 731 368 q 862 607 851 532 q 865 733 872 682 q 831 814 858 785 q 749 849 803 843 q 652 838 694 856 q 578 786 610 819 q 524 708 546 753 q 488 616 501 664 q 469 522 474 568 q 465 442 464 476 l 456 444 z "},"P":{"ha":896,"x_min":36,"x_max":883,"o":"m 206 1147 q 194 1093 186 1121 q 228 1041 201 1065 q 297 995 254 1017 q 392 958 340 974 q 500 933 443 942 q 611 924 557 924 q 690 929 651 924 q 763 947 729 935 l 769 939 l 661 763 q 648 740 653 749 q 647 725 643 732 q 686 698 653 715 q 759 656 719 681 q 835 599 799 631 q 883 531 871 568 l 761 313 q 728 271 747 296 q 683 222 708 246 q 628 179 658 199 q 560 153 597 160 q 474 159 515 146 q 394 204 433 172 q 399 110 397 151 q 401 56 401 69 l 250 38 l 474 -58 q 470 -73 479 -61 q 444 -102 461 -85 q 407 -143 428 -119 q 369 -193 386 -167 l 36 -47 l 126 90 l 231 47 q 239 84 235 57 q 247 148 243 111 q 253 227 250 185 q 256 310 256 269 q 256 385 257 350 q 251 439 256 419 q 228 524 244 483 q 189 599 213 565 q 135 655 165 632 q 68 685 104 678 l 201 850 q 106 917 146 879 q 42 994 67 954 l 201 1153 l 206 1147 m 400 694 l 414 692 q 383 544 393 618 q 386 412 374 469 q 439 320 399 354 q 560 292 479 286 q 626 304 592 294 q 692 329 661 314 q 747 363 722 344 q 781 399 771 381 q 742 471 771 444 q 679 517 713 497 q 617 556 646 536 q 578 608 588 575 q 586 686 567 644 q 633 768 606 728 q 401 782 506 761 q 215 843 296 803 l 151 764 q 206 733 176 756 q 265 678 236 710 q 319 607 294 646 q 357 529 344 568 l 400 694 z "},"Q":{"ha":958,"x_min":35,"x_max":951,"o":"m 81 199 q 65 319 68 250 q 67 463 61 389 q 90 612 74 538 q 132 749 106 686 q 219 863 157 810 q 355 954 281 915 q 505 1015 429 993 q 636 1038 581 1038 q 706 1021 683 1038 l 938 838 q 947 659 951 757 q 921 467 942 561 q 867 294 900 374 q 792 171 833 215 q 701 94 751 128 q 597 39 650 61 q 491 5 543 17 q 394 -7 439 -7 q 333 0 364 -7 l 228 81 q 146 -10 178 32 q 114 -78 114 -51 l 654 -78 q 756 -60 711 -78 q 825 7 800 -42 l 835 7 l 792 -78 l 722 -235 l 156 -235 q 141 -213 151 -232 q 117 -167 131 -194 q 90 -106 104 -139 q 63 -44 75 -74 q 42 6 50 -15 q 35 35 35 28 q 66 124 35 76 q 146 221 97 172 q 253 316 194 269 q 370 402 313 363 q 476 472 428 442 q 551 518 525 503 q 581 547 574 531 q 572 582 589 563 q 457 706 514 649 q 343 817 400 764 q 293 694 317 767 q 249 498 261 594 q 239 318 236 401 l 81 199 m 606 581 q 613 560 610 576 q 617 522 615 544 q 617 475 618 500 q 614 428 617 450 q 606 389 611 406 q 593 368 600 372 q 523 321 563 349 q 440 261 483 293 q 354 193 397 229 q 271 121 311 157 q 319 38 292 65 q 406 11 346 11 q 529 52 472 11 q 631 161 586 93 q 710 317 676 229 q 763 496 743 404 q 787 676 782 588 q 781 838 792 765 q 744 956 771 910 q 671 1011 717 1003 q 624 1015 649 1015 q 481 974 551 1015 q 353 832 411 932 l 606 581 z "},"R":{"ha":1121,"x_min":-92,"x_max":1100,"o":"m -11 738 l 210 971 l 1006 972 q 1063 926 1040 957 q 1086 868 1086 896 q 1076 816 1086 840 q 1048 770 1065 792 q 1008 729 1031 749 q 963 689 986 710 q 842 610 901 646 q 733 547 783 574 q 647 507 683 521 q 594 493 611 493 l 481 492 q 528 369 488 435 q 628 247 569 303 q 754 153 686 190 q 882 117 822 117 q 950 133 919 117 q 1006 175 981 150 q 1053 231 1032 200 q 1090 289 1074 261 l 1100 283 q 1042 196 1072 236 q 975 125 1011 156 q 909 76 950 103 q 827 25 868 49 q 752 -15 786 1 q 706 -32 718 -32 q 638 -11 675 -32 q 564 44 601 10 q 491 121 526 78 q 428 208 456 164 q 383 296 400 253 q 367 371 367 339 q 392 418 367 383 q 452 494 417 453 q 527 578 488 536 q 597 646 567 619 q 641 645 625 646 q 683 646 657 644 q 776 644 742 646 q 832 644 810 643 q 869 651 854 644 q 906 674 885 657 q 935 724 938 699 q 910 769 932 749 q 856 803 888 790 q 796 814 824 815 l 351 811 l 304 769 q 313 649 306 722 q 326 494 321 576 q 331 326 332 411 q 311 172 329 242 q 254 56 293 103 q 146 0 215 8 l -92 0 l -89 13 l 32 15 q 99 55 74 15 q 140 157 125 94 q 160 294 154 219 q 165 441 165 369 q 162 571 165 513 q 156 657 158 629 l 333 811 l 186 810 q 112 806 139 810 q 66 792 85 801 q 33 767 47 782 q 0 729 19 753 l -11 738 z "},"S":{"ha":885,"x_min":13,"x_max":889,"o":"m 394 765 q 365 824 378 790 q 349 896 353 858 q 349 974 344 933 q 371 1051 354 1014 l 257 975 q 215 915 222 946 q 208 860 208 883 q 238 762 208 807 q 315 676 267 717 q 424 601 363 636 q 549 530 485 565 q 674 458 613 494 q 783 382 735 422 q 860 297 831 342 q 889 197 889 251 q 860 99 889 144 q 783 15 831 53 q 676 -51 736 -22 q 553 -100 615 -81 q 434 -130 492 -119 q 333 -140 376 -140 q 181 -105 254 -140 q 65 -12 108 -69 q 17 117 21 46 q 72 261 13 189 l 367 417 l 376 406 q 255 312 293 365 q 217 186 217 258 q 247 81 217 128 q 326 1 278 35 q 434 -49 375 -32 q 549 -67 493 -67 q 623 -58 588 -67 q 685 -30 658 -49 q 726 18 711 -11 q 742 88 742 47 q 692 235 742 176 q 568 337 643 293 q 407 417 493 381 q 246 500 321 454 q 122 608 171 546 q 72 767 72 671 q 107 858 72 814 q 190 940 142 901 q 291 1010 239 978 q 376 1064 343 1042 q 491 892 429 949 q 610 835 553 835 q 696 878 658 835 q 747 1011 733 922 l 757 1011 l 703 650 q 616 654 660 650 q 531 671 572 658 q 455 706 490 683 q 394 765 419 729 z "},"T":{"ha":867,"x_min":11,"x_max":907,"o":"m 556 1172 q 538 1074 554 1125 q 485 974 522 1024 q 386 874 447 924 q 233 775 325 824 q 440 842 342 814 q 625 891 539 871 q 783 924 711 911 q 907 947 854 938 l 665 636 l 660 639 q 681 682 667 649 q 703 751 696 715 q 703 814 710 786 q 660 842 696 842 q 518 798 594 842 q 376 673 442 754 q 266 476 310 592 q 222 219 222 361 q 224 169 222 206 q 233 97 225 133 q 261 33 242 61 q 317 4 281 4 q 419 40 357 4 q 545 135 481 76 q 666 269 610 194 q 749 421 722 344 l 754 418 l 646 38 q 544 -14 608 4 q 413 -32 481 -32 q 269 -8 336 -32 q 151 56 201 15 q 72 152 101 96 q 43 272 43 208 q 71 397 43 336 q 142 513 99 458 q 240 616 186 568 q 348 703 294 664 q 447 772 401 742 q 521 818 493 801 q 395 750 450 782 q 292 692 340 718 q 197 647 243 665 q 99 617 151 628 q 49 624 69 611 q 20 660 29 636 q 13 714 11 683 q 29 774 15 744 l 99 915 l 103 914 q 90 855 81 875 q 121 826 99 835 q 172 817 143 818 q 217 817 200 817 q 283 828 253 817 q 326 856 313 839 q 354 947 354 893 q 344 1050 354 1000 l 556 1172 z "},"U":{"ha":967,"x_min":64,"x_max":967,"o":"m 532 1043 q 447 1002 489 1043 q 367 897 404 961 q 297 753 329 832 q 240 598 264 674 q 203 458 217 522 q 190 360 190 394 q 197 276 190 315 q 220 208 203 238 q 267 159 238 178 q 342 136 296 140 q 426 161 386 132 q 499 244 465 190 q 562 375 533 299 q 613 542 590 451 q 653 733 636 632 q 679 938 669 833 l 929 1129 l 935 1121 q 861 999 885 1079 q 833 816 838 918 q 840 598 829 714 q 869 369 850 482 l 674 158 l 967 158 l 843 0 l 438 0 l 578 158 l 654 158 l 688 201 q 695 309 696 257 q 690 413 694 361 q 681 516 686 464 q 675 622 675 568 q 675 702 675 667 q 676 765 675 738 q 638 577 661 672 q 585 394 615 482 q 519 229 556 306 q 438 96 482 153 q 345 6 394 39 q 240 -26 296 -26 q 171 -6 199 -26 q 128 49 143 15 q 106 122 113 82 q 100 199 100 161 q 123 375 100 286 q 181 552 146 464 q 262 725 217 640 q 350 889 307 810 q 304 838 328 863 q 257 795 281 814 q 209 765 233 776 q 161 753 185 753 q 118 767 136 753 q 88 804 100 782 q 69 853 75 826 q 64 903 64 879 q 78 1039 64 978 q 108 1131 92 1100 l 111 1125 q 97 1060 94 1088 q 114 1014 100 1032 q 151 988 128 996 q 196 979 174 979 q 315 990 265 979 q 402 1015 364 1001 q 471 1040 440 1029 q 532 1051 501 1051 l 532 1043 z "},"V":{"ha":1207,"x_min":15,"x_max":1204,"o":"m 1046 1061 q 1117 1048 1086 1058 q 1169 1017 1149 1038 q 1197 964 1189 996 q 1197 888 1204 932 q 1158 762 1189 838 q 1074 601 1126 686 q 951 426 1022 515 q 792 258 881 336 q 600 118 704 179 q 376 28 496 57 l 226 -10 q 224 -26 222 -17 q 228 -44 226 -35 q 230 -62 231 -54 q 221 -72 229 -69 q 197 -61 206 -76 q 200 -26 189 -46 l 349 232 l 425 242 q 491 344 460 293 q 546 451 522 396 q 583 565 569 506 q 597 692 597 625 q 581 796 597 751 q 537 870 565 840 q 471 915 508 900 q 390 931 433 931 q 213 872 303 931 q 137 801 167 843 q 94 713 107 758 q 88 624 82 668 q 117 546 93 581 q 183 490 140 511 q 289 472 226 469 q 366 495 326 474 q 442 550 406 517 q 510 623 479 583 q 563 700 542 663 l 569 690 q 521 619 551 660 q 455 539 490 579 q 383 461 419 499 q 314 399 346 424 q 183 351 256 351 q 119 364 150 351 q 65 402 88 376 q 28 469 42 428 q 18 565 15 510 q 38 672 21 624 q 83 760 54 719 q 151 838 111 801 q 240 910 192 875 q 308 950 269 931 q 390 984 347 969 q 478 1007 433 999 q 567 1015 524 1015 q 647 1006 608 1015 q 713 974 685 996 q 757 915 740 951 q 774 825 774 878 q 742 665 774 742 q 663 518 711 589 q 557 379 615 447 q 444 244 499 311 q 572 274 503 254 q 710 323 640 293 q 845 393 781 353 q 960 483 910 433 q 1041 591 1011 532 q 1071 717 1071 650 q 1061 764 1071 740 q 1035 806 1051 788 q 998 838 1019 825 q 953 850 976 850 q 910 838 932 850 q 869 799 889 826 l 864 801 l 885 828 l 1046 1061 z "},"W":{"ha":1568,"x_min":4,"x_max":1546,"o":"m 874 417 q 828 318 831 360 q 844 249 826 276 q 891 208 863 222 q 938 193 919 194 q 1205 215 1100 185 q 1371 298 1310 246 q 1454 417 1432 350 q 1473 547 1476 483 q 1447 664 1469 611 q 1393 743 1424 717 q 1315 771 1361 771 q 1235 748 1275 771 q 1167 683 1196 725 l 1160 686 l 1385 1033 q 1489 948 1453 1007 q 1535 812 1525 889 q 1533 644 1546 735 q 1489 464 1519 554 q 1412 290 1458 374 q 1310 143 1365 207 q 1191 42 1254 79 q 1064 4 1128 4 q 944 44 999 4 q 854 151 889 85 q 811 302 819 217 q 832 479 803 388 l 864 581 q 793 418 835 504 q 692 255 751 332 q 554 117 633 178 q 372 31 475 57 l 219 -8 q 217 -25 215 -15 q 222 -44 219 -35 q 223 -61 224 -53 q 214 -72 222 -69 q 190 -61 199 -76 q 193 -26 182 -46 l 344 238 l 422 247 q 490 353 458 300 q 545 461 521 406 q 583 578 569 517 q 597 707 597 639 q 581 813 597 768 q 535 889 564 858 q 469 935 507 919 q 386 950 431 950 q 296 935 342 950 q 204 890 250 921 q 128 817 158 860 q 85 729 97 775 q 79 638 74 683 q 109 558 85 593 q 176 501 133 522 q 283 482 219 479 q 361 506 321 483 q 439 562 401 528 q 508 636 476 596 q 561 714 540 676 l 569 706 q 519 633 550 674 q 451 550 488 592 q 378 471 415 508 q 308 407 340 433 q 176 360 250 360 q 111 372 143 360 q 56 411 79 385 q 18 478 32 438 q 7 578 4 519 q 26 685 10 636 q 72 777 43 735 q 142 857 101 819 q 233 929 183 894 q 302 969 263 950 q 385 1003 342 989 q 476 1027 429 1018 q 565 1036 522 1036 q 647 1026 608 1036 q 715 994 686 1017 q 761 933 744 971 q 778 842 778 896 q 747 679 778 757 q 666 528 715 601 q 558 387 617 456 q 443 250 499 318 q 601 294 529 263 q 731 387 672 325 q 836 548 789 449 q 921 794 883 647 l 939 796 l 939 794 l 1165 800 l 874 417 z "},"X":{"ha":1046,"x_min":-75,"x_max":1079,"o":"m -15 972 l 225 972 l 571 579 l 728 686 q 747 726 754 704 q 713 774 739 749 q 649 826 688 799 q 576 879 611 853 q 514 931 540 906 q 483 979 488 957 q 489 1011 482 994 q 507 1044 496 1028 q 533 1075 518 1060 q 560 1100 547 1090 l 714 1233 l 717 1226 q 665 1174 686 1197 q 649 1117 643 1151 q 674 1065 653 1088 q 724 1021 694 1042 q 786 981 753 1000 q 849 940 819 961 q 899 895 878 919 q 924 840 919 871 q 915 793 928 814 q 878 753 903 772 q 816 710 853 733 q 735 657 779 688 l 589 558 l 1079 0 l 835 0 l 438 456 l 169 274 q 119 231 132 251 q 113 192 107 210 q 140 175 118 175 q 199 187 163 175 q 284 213 236 199 q 390 240 332 228 q 511 251 447 251 q 581 247 546 251 l 450 -68 l 442 -68 q 428 63 438 10 q 404 149 418 117 q 373 194 390 181 q 336 208 356 208 q 283 190 311 208 q 224 144 254 172 q 163 85 194 117 q 102 26 132 54 q 44 -19 72 -1 q -8 -37 17 -37 q -55 -15 -35 -37 q -72 47 -75 8 q -35 136 -69 85 q 81 243 -1 188 l 419 475 l -15 972 z "},"Y":{"ha":872,"x_min":13,"x_max":853,"o":"m 853 1025 q 825 983 844 1013 q 781 917 806 954 q 730 838 757 879 q 681 757 703 796 q 645 685 660 718 q 631 633 631 653 q 647 534 631 581 q 686 444 663 488 q 738 360 710 401 q 790 277 767 319 q 830 189 814 235 q 846 90 846 143 q 835 5 846 46 q 804 -76 824 -36 l 590 -290 q 508 -324 571 -311 q 367 -337 444 -337 q 183 -321 251 -337 q 113 -261 115 -304 q 125 -208 110 -246 q 167 -123 140 -171 q 225 -24 193 -75 q 288 70 257 28 q 344 140 319 113 q 379 168 369 168 q 447 167 417 168 q 503 163 476 165 q 555 160 529 161 q 611 156 581 158 l 556 -160 q 415 -16 468 -61 q 322 29 361 29 q 266 1 292 29 q 210 -81 240 -28 q 202 -140 189 -118 q 245 -174 215 -162 q 312 -188 275 -185 q 374 -193 349 -192 q 604 -186 524 -200 q 715 -142 685 -172 q 735 -65 746 -111 q 690 38 724 -19 q 613 219 635 132 q 591 393 592 306 q 604 572 590 481 q 632 768 618 664 q 550 531 590 638 q 463 347 510 424 q 361 228 417 271 q 233 186 306 186 q 138 213 169 186 q 97 285 106 240 q 98 389 88 331 q 130 510 108 447 q 181 637 151 574 q 238 754 210 700 q 290 849 267 808 q 325 908 314 890 q 275 856 303 883 q 219 806 247 829 q 162 769 190 783 q 110 754 133 754 q 67 767 85 754 q 36 801 49 781 q 18 847 24 822 q 13 894 13 872 q 26 1022 13 964 q 57 1107 40 1079 l 60 1103 q 46 1041 43 1067 q 63 999 49 1015 q 99 974 76 982 q 144 965 122 965 q 264 976 214 965 q 352 999 314 986 q 421 1023 390 1013 q 482 1033 451 1033 l 388 857 q 308 820 347 857 q 240 728 268 783 q 197 607 211 672 q 190 483 182 542 q 233 384 199 425 q 336 338 267 343 q 434 358 394 332 q 500 450 474 383 q 541 630 526 517 q 563 913 556 743 l 853 1025 z "},"Z":{"ha":1036,"x_min":44,"x_max":1074,"o":"m 253 1042 q 331 970 281 1001 q 441 917 381 939 q 565 883 501 894 q 683 872 629 872 q 823 877 771 872 q 910 899 875 882 q 975 951 946 917 q 1047 1044 1004 986 l 1074 1042 l 914 835 l 403 250 q 581 162 489 189 q 756 135 672 135 q 904 160 840 135 q 992 231 968 186 q 976 315 992 286 q 940 358 961 344 q 899 373 919 371 q 869 375 879 375 q 759 356 803 375 q 688 306 715 336 q 648 242 661 276 q 631 176 635 207 l 618 181 l 715 572 q 835 544 776 563 q 926 501 894 525 q 985 426 965 472 q 1010 319 1004 379 q 1009 188 1015 260 q 992 35 1003 115 q 875 -13 938 3 q 744 -29 813 -29 q 520 12 635 -29 q 300 132 406 53 l 185 0 q 105 27 136 -3 q 59 106 74 57 q 46 216 44 154 q 62 340 47 278 q 104 460 76 403 q 169 554 132 517 q 226 440 193 492 q 296 346 258 389 q 392 446 342 392 q 489 553 442 500 q 578 654 536 606 q 649 738 619 703 q 616 736 633 736 q 581 736 599 736 q 485 756 526 736 q 411 804 443 775 q 356 867 379 833 q 313 930 332 901 q 280 977 294 958 q 251 993 265 996 q 238 982 244 992 q 230 958 231 972 q 240 927 229 943 q 279 899 250 911 q 362 815 331 875 q 393 685 393 754 q 385 614 393 650 q 363 545 376 578 q 333 486 350 513 q 297 443 315 460 l 289 453 q 325 508 317 476 q 326 572 333 539 q 297 636 318 604 q 247 692 276 668 q 183 732 218 717 q 114 747 149 747 l 253 1042 m 124 214 q 181 240 142 213 q 81 368 128 297 q 65 308 69 336 q 65 258 61 279 q 83 226 69 238 q 124 214 97 214 z "},"a":{"ha":671,"x_min":17,"x_max":649,"o":"m 443 201 l 217 201 l 185 0 l 17 0 l 168 972 l 497 972 l 649 0 l 475 0 l 443 201 m 424 333 l 331 932 l 236 333 l 424 333 z "},"b":{"ha":708,"x_min":47,"x_max":681,"o":"m 404 521 q 494 510 446 521 q 584 472 543 500 q 653 395 625 443 q 681 272 681 347 q 654 149 681 201 q 583 64 628 97 q 478 15 538 31 q 353 0 419 0 l 47 0 l 47 972 l 328 972 q 454 965 394 976 q 559 926 514 954 q 631 851 604 897 q 658 739 658 806 q 634 633 658 675 q 573 567 610 592 q 491 533 536 543 q 404 524 446 524 l 404 521 m 328 583 q 442 617 397 583 q 488 724 488 650 q 442 821 488 793 q 328 847 397 849 l 218 847 l 218 583 l 328 583 m 354 125 q 469 168 428 124 q 510 293 510 213 q 494 364 510 333 q 453 416 479 394 q 395 448 428 438 q 328 458 363 458 l 218 458 l 218 125 l 354 125 z "},"o":{"ha":985,"x_min":21,"x_max":963,"o":"m 21 481 q 55 682 21 592 q 151 837 89 772 q 299 937 213 901 q 493 972 386 972 q 685 937 599 972 q 833 837 772 901 q 928 682 894 772 q 963 481 963 592 q 928 280 963 371 q 833 124 894 189 q 685 24 772 60 q 493 -11 599 -11 q 299 24 386 -11 q 151 124 213 60 q 55 280 89 189 q 21 481 21 371 m 163 481 q 186 340 163 404 q 253 231 210 276 q 357 161 296 186 q 493 136 418 136 q 627 161 567 136 q 731 231 688 186 q 797 340 774 276 q 821 481 821 404 q 797 622 821 558 q 731 730 774 685 q 627 800 688 775 q 493 825 567 825 q 357 800 418 825 q 253 730 296 775 q 186 622 210 685 q 163 481 163 558 z "},"c":{"ha":982,"x_min":35,"x_max":972,"o":"m 176 481 q 200 340 176 404 q 267 231 224 276 q 371 161 310 186 q 507 136 432 136 q 701 188 618 136 q 810 338 783 239 l 972 338 q 910 192 953 257 q 808 83 868 128 q 671 13 747 38 q 507 -11 594 -11 q 313 24 400 -11 q 165 124 226 60 q 69 280 103 189 q 35 481 35 371 q 69 682 35 592 q 165 837 103 772 q 313 937 226 901 q 507 972 400 972 q 686 940 607 972 q 820 850 765 908 q 905 711 875 792 q 935 533 935 631 l 792 533 q 507 825 778 825 q 371 800 432 825 q 267 730 310 775 q 200 622 224 685 q 176 481 176 558 z "},"d":{"ha":693,"x_min":50,"x_max":661,"o":"m 50 972 l 336 972 q 474 953 414 972 q 576 889 535 935 q 640 765 618 843 q 661 567 661 686 q 654 436 661 503 q 629 306 647 369 q 581 187 611 243 q 506 89 551 131 q 397 23 460 47 q 250 0 333 -1 l 50 0 l 50 972 m 251 125 q 347 144 308 125 q 413 195 386 163 q 456 269 440 228 q 478 355 471 311 q 488 442 486 399 q 490 519 490 485 q 479 695 490 631 q 446 794 468 760 q 393 838 424 828 q 322 847 363 847 l 221 847 l 221 125 l 251 125 z "},"e":{"ha":818,"x_min":35,"x_max":790,"o":"m 204 125 l 790 125 l 790 0 l 35 0 l 35 972 l 786 972 l 786 847 l 206 847 l 206 549 l 786 549 l 786 424 l 206 424 l 204 125 z "},"f":{"ha":826,"x_min":35,"x_max":786,"o":"m 203 0 l 35 0 l 35 972 l 786 972 l 786 847 l 206 847 l 206 549 l 786 549 l 786 424 l 206 424 l 203 0 z "},"g":{"ha":951,"x_min":26,"x_max":914,"o":"m 168 481 q 192 340 168 404 q 261 231 215 276 q 374 161 307 186 q 525 136 440 136 q 599 144 560 136 q 674 179 639 151 q 735 260 710 207 q 765 407 760 314 l 765 424 l 307 424 l 307 549 l 914 549 l 914 0 l 765 0 l 765 201 q 664 38 742 88 q 478 -11 586 -11 q 296 24 379 -11 q 153 124 213 60 q 60 280 93 189 q 26 481 26 371 q 60 682 26 592 q 156 837 94 772 q 305 937 218 901 q 499 972 392 972 l 910 972 l 908 822 l 499 825 q 363 800 424 825 q 258 730 301 775 q 192 622 215 685 q 168 481 168 558 z "},"h":{"ha":689,"x_min":35,"x_max":653,"o":"m 206 549 l 481 549 l 481 972 l 651 972 l 653 0 l 481 0 l 481 424 l 207 424 l 207 0 l 35 0 l 35 972 l 206 972 l 206 549 z "},"i":{"ha":303,"x_min":74,"x_max":246,"o":"m 246 0 l 74 0 l 74 972 l 244 972 l 246 0 z "},"j":{"ha":415,"x_min":32,"x_max":378,"o":"m 206 242 l 206 972 l 376 972 l 376 794 l 378 415 l 378 238 q 324 56 378 113 q 171 0 269 0 l 32 0 l 32 132 q 101 134 69 132 q 155 147 132 136 q 191 181 178 158 q 206 242 204 203 z "},"k":{"ha":674,"x_min":35,"x_max":658,"o":"m 206 490 l 474 972 l 644 972 l 383 503 l 658 503 l 419 0 l 249 0 l 447 394 l 207 394 l 207 0 l 35 0 l 35 972 l 206 972 l 206 490 z "},"m":{"ha":993,"x_min":39,"x_max":968,"o":"m 968 972 l 957 0 l 792 0 l 792 794 l 668 0 l 339 0 l 213 814 l 203 0 l 39 0 l 39 972 l 356 972 l 501 40 l 646 972 l 968 972 z "},"n":{"ha":940,"x_min":35,"x_max":911,"o":"m 732 42 l 732 972 l 911 972 l 900 0 l 581 0 l 213 908 l 203 0 l 35 0 l 35 972 l 356 972 l 732 42 z "},"p":{"ha":663,"x_min":35,"x_max":646,"o":"m 204 0 l 35 0 l 35 972 l 315 972 q 440 961 381 972 q 546 922 500 950 q 619 845 592 893 q 646 724 646 797 q 622 607 646 657 q 555 524 599 557 q 451 474 511 490 q 315 457 390 457 l 206 457 l 204 0 m 315 589 q 379 594 350 589 q 430 613 408 599 q 463 651 451 626 q 475 715 475 676 q 463 779 475 754 q 430 817 451 804 q 379 835 408 831 q 315 840 350 840 l 206 840 l 206 589 l 315 589 z "},"q":{"ha":1004,"x_min":35,"x_max":1049,"o":"m 35 481 q 69 683 35 592 q 165 842 103 775 q 313 945 226 908 q 507 982 400 982 q 699 945 613 982 q 847 842 786 908 q 942 683 908 775 q 976 481 976 592 q 942 278 976 371 q 847 121 908 186 q 699 19 786 56 q 507 -18 613 -18 q 313 19 400 -18 q 165 121 226 56 q 69 278 103 186 q 35 481 35 371 m 176 481 q 200 340 176 404 q 267 228 224 275 q 371 155 310 181 q 507 129 432 129 q 641 155 581 129 q 744 228 701 181 q 811 340 788 275 q 835 481 835 404 q 811 623 835 558 q 744 735 788 688 q 641 808 701 782 q 507 835 581 835 q 371 808 432 835 q 267 735 310 782 q 200 623 224 688 q 176 481 176 558 m 493 -74 l 1049 -74 l 1049 -204 l 493 -204 l 493 -74 z "},"r":{"ha":726,"x_min":67,"x_max":678,"o":"m 236 0 l 67 0 l 67 972 l 347 972 q 472 961 413 972 q 578 922 532 950 q 651 845 624 893 q 678 724 678 797 q 616 549 678 614 q 449 465 554 485 l 676 0 l 503 0 l 279 457 l 238 457 l 236 0 m 347 589 q 411 594 382 589 q 462 613 440 599 q 495 651 483 626 q 507 715 507 676 q 495 779 507 754 q 462 817 483 804 q 411 835 440 831 q 347 840 382 840 l 238 840 l 238 589 l 347 589 z "},"l":{"ha":526,"x_min":35,"x_max":497,"o":"m 496 0 l 35 0 l 35 972 l 214 972 l 206 132 l 497 132 l 496 0 z "},"s":{"ha":756,"x_min":32,"x_max":718,"o":"m 551 239 q 517 326 551 293 q 431 387 483 360 q 319 438 379 414 q 208 498 260 463 q 122 585 156 533 q 88 717 88 638 q 112 832 88 782 q 178 915 136 882 q 277 966 219 949 q 401 983 335 983 q 539 960 479 983 q 638 897 599 938 q 698 799 678 856 q 718 672 718 742 l 547 672 q 542 730 547 703 q 519 777 536 757 q 474 810 503 797 q 400 822 446 822 q 348 818 374 822 q 303 803 322 814 q 271 772 283 792 q 258 724 258 753 q 292 640 258 674 q 378 578 326 606 q 488 522 429 550 q 599 458 547 494 q 684 369 650 421 q 718 239 718 317 q 635 55 718 121 q 394 -11 551 -11 q 231 15 300 -11 q 118 83 163 40 q 53 183 74 126 q 32 301 32 239 l 203 301 q 218 239 203 268 q 260 188 233 210 q 322 152 286 165 q 399 139 357 139 q 458 143 431 139 q 507 158 486 147 q 540 189 528 169 q 551 239 551 208 z "},"t":{"ha":686,"x_min":21,"x_max":660,"o":"m 21 971 l 660 971 l 660 846 l 426 846 l 428 0 l 256 0 l 256 846 l 21 846 l 21 971 z "},"u":{"ha":872,"x_min":61,"x_max":814,"o":"m 231 382 q 249 278 231 322 q 297 203 267 233 q 364 158 326 174 q 440 143 401 143 q 516 158 479 143 q 581 202 553 172 q 627 277 610 232 q 644 382 644 322 l 644 969 l 814 969 l 814 365 q 781 205 814 274 q 696 90 749 136 q 575 22 643 44 q 436 -1 507 -1 q 298 22 365 -1 q 178 90 231 44 q 93 205 125 136 q 61 365 61 274 l 61 969 l 231 969 l 231 382 z "},"v":{"ha":707,"x_min":32,"x_max":658,"o":"m 658 972 l 507 0 l 183 0 l 32 972 l 200 972 l 346 40 l 490 972 l 658 972 z "},"x":{"ha":826,"x_min":26,"x_max":808,"o":"m 296 486 l 26 972 l 206 972 l 413 600 l 422 600 l 629 972 l 808 972 l 539 486 l 808 0 l 629 0 l 422 372 l 413 372 l 206 0 l 26 0 l 296 486 z "},"y":{"ha":689,"x_min":18,"x_max":667,"o":"m 506 331 l 426 331 l 426 0 l 256 0 l 256 331 l 176 331 l 18 972 l 193 972 l 342 367 l 492 972 l 667 972 l 506 331 z "},"z":{"ha":858,"x_min":26,"x_max":824,"o":"m 771 792 l 771 793 l 26 793 l 26 972 l 822 972 l 824 642 l 79 190 l 79 189 l 824 189 l 824 10 l 28 10 l 26 328 l 771 792 z "},"w":{"ha":1028,"x_min":33,"x_max":993,"o":"m 510 799 l 365 0 l 33 0 l 33 972 l 197 972 l 208 58 l 374 974 l 651 974 l 818 61 l 818 972 l 982 972 l 993 0 l 656 0 l 510 799 z "},"!":{"ha":258,"x_min":42,"x_max":213,"o":"m 206 246 l 47 246 l 42 972 l 213 972 l 206 246 m 206 0 l 49 0 l 49 150 l 204 150 l 206 0 z "},"?":{"ha":503,"x_min":31,"x_max":506,"o":"m 31 676 q 51 806 31 750 q 105 898 71 861 q 183 953 139 935 q 276 972 228 972 q 383 955 339 972 q 453 910 426 938 q 493 847 481 882 q 506 775 506 811 q 465 599 506 688 q 357 438 424 510 q 205 322 290 367 q 32 276 119 276 l 32 514 q 264 550 171 514 q 396 676 357 586 l 31 676 m 400 686 q 419 808 419 740 q 396 915 419 875 q 324 956 372 956 q 272 941 294 956 q 235 902 250 926 q 213 848 221 878 q 206 786 206 818 q 230 710 206 731 q 307 686 254 689 l 400 686 m 281 0 l 124 0 l 124 150 l 279 150 l 281 0 z "},"@":{"ha":1256,"x_min":32,"x_max":1225,"o":"m 32 347 q 77 601 32 486 q 203 798 122 715 q 396 926 283 881 q 643 972 508 972 q 1078 828 932 972 q 1225 403 1225 685 q 1169 144 1225 235 q 996 54 1114 54 q 910 69 946 54 q 851 108 874 85 q 817 162 828 132 q 806 221 806 192 l 806 240 l 789 240 q 735 140 778 175 q 617 106 692 106 q 505 128 554 106 q 422 189 456 150 q 369 281 388 228 q 351 393 351 333 q 369 494 351 447 q 421 576 388 542 q 500 630 454 610 q 600 650 546 650 l 886 650 l 888 226 q 892 203 888 219 q 910 171 897 188 q 944 141 922 154 q 999 128 965 128 q 1099 190 1065 128 q 1133 394 1133 251 q 1105 615 1133 522 q 1017 767 1076 707 q 866 855 958 826 q 644 883 774 883 q 437 845 531 883 q 276 739 343 807 q 174 576 210 671 q 138 371 138 482 q 160 197 138 272 q 223 68 183 122 q 315 -22 263 14 q 427 -78 368 -57 q 550 -107 486 -99 q 674 -115 614 -115 l 888 -115 l 888 -204 l 674 -206 q 411 -169 529 -206 q 208 -64 293 -133 q 78 109 124 6 q 32 347 32 213 m 435 393 q 493 244 435 296 q 647 192 551 192 q 717 206 689 192 q 761 244 744 219 q 784 301 778 268 q 790 372 790 335 l 790 563 l 600 564 q 478 517 522 565 q 435 393 435 469 z "},"#":{"ha":940,"x_min":10,"x_max":921,"o":"m 535 972 l 461 735 l 638 735 l 711 972 l 853 972 l 779 735 l 921 735 l 921 610 l 742 610 l 672 385 l 821 385 l 821 260 l 633 260 l 554 0 l 413 0 l 492 260 l 315 260 l 236 0 l 94 0 l 174 260 l 10 260 l 10 385 l 213 385 l 282 610 l 110 610 l 110 735 l 319 735 l 393 972 l 535 972 m 531 385 l 600 610 l 424 610 l 354 385 l 531 385 z "},"%":{"ha":838,"x_min":21,"x_max":813,"o":"m 21 775 q 75 918 21 864 q 219 972 129 972 q 363 918 308 972 q 417 775 417 864 q 363 631 417 685 q 219 576 308 576 q 75 631 129 576 q 21 775 21 685 m 732 971 l 185 0 l 76 0 l 624 971 l 732 971 m 90 775 q 126 681 90 717 q 219 646 161 646 q 313 681 278 646 q 347 775 347 717 q 313 868 347 833 q 219 903 278 903 q 126 868 161 903 q 90 775 90 833 m 417 199 q 471 342 417 288 q 615 396 525 396 q 758 342 704 396 q 813 199 813 288 q 758 54 813 108 q 615 0 704 0 q 471 54 525 0 q 417 199 417 108 m 486 199 q 522 105 486 140 q 615 69 557 69 q 708 105 674 69 q 743 199 743 140 q 708 292 743 257 q 615 326 674 326 q 522 292 557 326 q 486 199 486 257 z "},"&":{"ha":885,"x_min":32,"x_max":983,"o":"m 76 707 q 97 818 76 769 q 153 900 117 867 q 238 951 189 933 q 343 968 286 968 l 690 972 l 686 819 l 344 821 q 294 810 314 821 q 263 785 275 800 q 247 754 251 771 q 242 725 242 738 q 279 629 242 686 q 380 504 317 572 q 526 362 443 436 q 700 214 610 288 q 740 247 721 229 q 775 288 760 265 q 800 338 790 311 q 810 397 810 365 l 810 510 l 439 507 l 439 632 l 832 635 l 833 524 l 833 396 q 816 267 833 325 q 767 161 799 208 l 983 0 l 721 0 l 651 56 q 523 6 593 22 q 371 -11 453 -11 q 243 17 304 -11 q 135 92 182 44 q 60 201 88 139 q 32 332 32 264 q 64 442 32 390 q 140 531 96 494 q 94 619 111 575 q 76 707 76 664 m 239 408 q 189 383 218 400 q 133 342 160 365 q 87 294 106 319 q 68 246 68 268 q 85 201 68 219 q 131 171 103 183 q 194 151 160 158 q 262 141 228 144 q 325 137 296 138 q 371 136 354 136 q 451 139 410 136 q 532 149 492 142 q 380 274 457 208 q 239 408 303 340 z "},"\"":{"ha":381,"x_min":53,"x_max":332,"o":"m 53 1042 l 161 1042 l 161 694 l 53 694 l 53 1042 m 224 1042 l 332 1042 l 332 694 l 224 694 l 224 1042 z "},"$":{"ha":665,"x_min":22,"x_max":632,"o":"m 296 1042 l 406 1042 l 406 960 q 575 871 518 944 q 632 688 632 797 l 481 688 q 465 763 481 729 q 406 813 450 797 l 406 564 q 487 522 446 544 q 560 468 528 499 q 612 397 592 438 q 632 301 632 357 q 574 153 632 210 q 406 82 515 96 l 406 0 l 296 0 l 296 81 q 173 113 225 88 q 88 175 121 138 q 38 259 54 213 q 22 357 22 306 l 174 357 q 209 271 175 308 q 296 219 243 233 l 296 471 q 215 510 256 489 q 143 560 175 531 q 91 629 111 589 q 71 726 71 669 q 88 818 71 778 q 134 888 104 858 q 206 935 164 917 q 296 960 247 954 l 296 1042 m 296 815 q 243 789 264 808 q 222 732 222 769 q 243 670 222 696 q 296 622 264 644 l 296 815 m 483 301 q 462 369 483 342 q 406 417 440 396 l 406 217 q 462 242 440 224 q 483 301 483 261 z "},"'":{"ha":214,"x_min":53,"x_max":161,"o":"m 53 1042 l 161 1042 l 161 694 l 53 694 l 53 1042 z "},"(":{"ha":410,"x_min":81,"x_max":332,"o":"m 81 742 q 101 868 81 813 q 156 962 122 924 q 236 1021 190 1000 q 332 1042 282 1042 l 332 932 q 278 921 304 932 q 233 887 253 910 q 202 828 214 864 q 190 742 190 792 l 190 85 q 202 -1 190 35 q 233 -60 214 -37 q 278 -94 253 -83 q 332 -106 304 -106 l 332 -215 q 236 -194 282 -215 q 156 -135 190 -174 q 101 -42 122 -97 q 81 85 81 14 l 81 742 z "},")":{"ha":463,"x_min":81,"x_max":332,"o":"m 332 85 q 311 -42 332 14 q 256 -135 290 -97 q 176 -194 222 -174 q 81 -215 131 -215 l 81 -106 q 134 -94 108 -106 q 179 -60 160 -83 q 210 -1 199 -37 q 222 85 222 35 l 222 742 q 210 828 222 792 q 179 887 199 864 q 134 921 160 910 q 81 932 108 932 l 81 1042 q 176 1021 131 1042 q 256 962 222 1000 q 311 868 290 924 q 332 742 332 813 l 332 85 z "},"*":{"ha":393,"x_min":15,"x_max":376,"o":"m 15 689 l 117 790 l 15 892 l 71 946 l 157 860 l 157 1000 l 235 1000 l 235 860 l 321 946 l 376 892 l 275 790 l 376 689 l 321 635 l 235 721 l 235 585 l 157 585 l 157 721 l 71 635 l 15 689 z "},"+":{"ha":771,"x_min":36,"x_max":732,"o":"m 329 293 l 36 293 l 36 403 l 329 403 l 329 694 l 439 694 l 439 403 l 732 403 l 732 293 l 439 293 l 439 0 l 329 0 l 329 293 z "},",":{"ha":240,"x_min":32,"x_max":203,"o":"m 32 169 l 203 169 l 203 0 l 125 -140 l 53 -140 l 133 0 l 32 0 l 32 169 z "},".":{"ha":235,"x_min":32,"x_max":203,"o":"m 32 169 l 203 169 l 203 0 l 32 0 l 32 169 z "},"-":{"ha":683,"x_min":26,"x_max":639,"o":"m 26 293 l 26 403 l 639 403 l 639 293 l 26 293 z "},"/":{"ha":692,"x_min":21,"x_max":676,"o":"m 676 971 l 129 0 l 21 0 l 568 971 l 676 971 z "},"[":{"ha":321,"x_min":42,"x_max":293,"o":"m 42 836 q 65 951 42 910 q 124 1012 88 992 q 205 1037 160 1032 q 293 1042 250 1042 l 293 932 q 240 932 265 932 q 194 924 214 932 q 163 897 175 917 q 151 836 151 876 l 151 64 q 163 3 151 24 q 194 -24 175 -17 q 240 -32 214 -32 q 293 -32 265 -32 l 293 -142 q 205 -137 250 -142 q 124 -112 160 -132 q 65 -51 88 -92 q 42 64 42 -10 l 42 836 z "},"]":{"ha":386,"x_min":81,"x_max":332,"o":"m 332 64 q 309 -51 332 -10 q 250 -112 286 -92 q 169 -137 214 -132 q 81 -142 125 -142 l 81 -32 q 134 -32 108 -32 q 179 -24 160 -32 q 210 3 199 -17 q 222 64 222 24 l 222 836 q 210 897 222 876 q 179 924 199 917 q 134 932 160 932 q 81 932 108 932 l 81 1042 q 169 1037 125 1042 q 250 1012 214 1032 q 309 951 286 992 q 332 836 332 910 l 332 64 z "},"\\":{"ha":692,"x_min":33,"x_max":689,"o":"m 689 0 l 581 0 l 33 971 l 142 971 l 689 0 z "},"^":{"ha":651,"x_min":32,"x_max":621,"o":"m 221 989 l 432 989 l 621 603 l 503 603 l 326 964 l 150 603 l 32 603 l 221 989 z "},"_":{"ha":669,"x_min":26,"x_max":639,"o":"m 26 -110 l 26 0 l 639 0 l 639 -110 l 26 -110 z "},"`":{"ha":274,"x_min":35,"x_max":244,"o":"m 35 1042 l 100 1042 l 244 838 l 179 838 l 35 1042 z "},":":{"ha":267,"x_min":46,"x_max":217,"o":"m 46 583 l 217 583 l 217 414 l 46 414 l 46 583 m 46 169 l 217 169 l 217 0 l 46 0 l 46 169 z "},";":{"ha":267,"x_min":46,"x_max":218,"o":"m 46 583 l 217 583 l 217 414 l 46 414 l 46 583 m 47 169 l 218 169 l 218 0 l 140 -140 l 68 -140 l 149 0 l 47 0 l 47 169 z "},"<":{"ha":667,"x_min":26,"x_max":639,"o":"m 26 293 l 26 403 l 639 696 l 639 586 l 142 347 l 639 110 l 639 0 l 26 293 z "},">":{"ha":663,"x_min":26,"x_max":639,"o":"m 26 110 l 524 347 l 26 586 l 26 696 l 639 403 l 639 293 l 26 0 l 26 110 z "},"=":{"ha":665,"x_min":26,"x_max":639,"o":"m 26 392 l 26 501 l 639 501 l 639 392 l 26 392 m 26 203 l 26 313 l 639 313 l 639 203 l 26 203 z "},"{":{"ha":464,"x_min":0,"x_max":332,"o":"m 0 485 l 81 485 l 81 742 q 101 868 81 813 q 156 962 122 924 q 236 1021 190 1000 q 332 1042 282 1042 l 332 932 q 278 921 304 932 q 233 887 253 910 q 202 828 214 864 q 190 742 190 792 l 190 522 q 181 482 190 499 q 159 455 172 465 q 130 440 146 444 q 99 436 114 436 l 99 415 q 130 409 114 415 q 159 391 146 403 q 181 362 172 379 q 190 322 190 344 l 190 85 q 202 -1 190 35 q 233 -60 214 -37 q 278 -94 253 -83 q 332 -106 304 -106 l 332 -215 q 236 -194 282 -215 q 156 -135 190 -174 q 101 -42 122 -97 q 81 85 81 14 l 81 363 l 0 363 l 0 485 z "},"}":{"ha":464,"x_min":96,"x_max":428,"o":"m 347 363 l 347 85 q 326 -42 347 14 q 272 -135 306 -97 q 192 -194 238 -174 q 96 -215 146 -215 l 96 -106 q 149 -94 124 -106 q 194 -60 175 -83 q 226 -1 214 -37 q 238 85 238 35 l 238 322 q 247 362 238 344 q 269 391 256 379 q 299 409 282 403 q 329 415 315 415 l 329 436 q 299 440 315 436 q 269 455 282 444 q 247 482 256 465 q 238 522 238 499 l 238 742 q 226 828 238 792 q 194 887 214 864 q 149 921 175 910 q 96 932 124 932 l 96 1042 q 192 1021 146 1042 q 272 962 238 1000 q 326 868 306 924 q 347 742 347 813 l 347 485 l 428 485 l 428 363 l 347 363 z "},"|":{"ha":233,"x_min":68,"x_max":167,"o":"m 68 1011 l 167 1011 l 167 0 l 68 0 l 68 1011 z "},"~":{"ha":811,"x_min":56,"x_max":768,"o":"m 56 419 q 115 474 76 460 q 204 489 154 489 q 303 480 250 489 q 412 460 357 471 q 520 440 467 449 q 621 431 574 431 q 708 445 669 431 q 768 499 747 460 l 768 376 q 708 323 747 338 q 621 308 669 308 q 520 317 574 308 q 412 338 467 326 q 303 358 357 349 q 204 367 250 367 q 115 352 154 367 q 56 297 76 338 l 56 419 z "},"":{"ha":257,"x_min":35,"x_max":244,"o":"m 35 838 l 179 1042 l 244 1042 l 100 838 l 35 838 z "},"":{"ha":388,"x_min":18,"x_max":372,"o":"m 18 838 l 163 1042 l 228 1042 l 372 838 l 307 838 l 196 996 l 83 838 l 18 838 z "},"":{"ha":392,"x_min":18,"x_max":372,"o":"m 196 883 l 307 1042 l 372 1042 l 228 838 l 163 838 l 18 1042 l 83 1042 l 196 883 z "},"":{"ha":317,"x_min":36,"x_max":276,"o":"m 36 892 q 56 910 43 906 q 88 915 69 915 q 158 906 119 915 q 228 896 196 896 q 257 901 244 896 q 276 919 269 906 l 276 879 q 226 854 263 854 q 156 865 194 854 q 86 875 118 875 q 56 870 69 875 q 36 851 43 865 l 36 892 z "},"":{"ha":292,"x_min":26,"x_max":265,"o":"m 26 919 q 41 958 26 943 q 79 972 56 972 q 117 958 103 972 q 132 919 132 943 q 117 881 132 896 q 79 867 103 867 q 41 881 56 867 q 26 919 26 896 m 160 919 q 174 958 160 943 q 213 972 189 972 q 251 958 236 972 q 265 919 265 943 q 251 881 265 896 q 213 867 236 867 q 174 881 189 867 q 160 919 160 896 z "},"":{"ha":293,"x_min":35,"x_max":263,"o":"m 35 851 q 66 934 35 903 q 149 965 97 965 q 231 934 200 965 q 263 851 263 903 q 231 767 263 799 q 149 736 200 736 q 66 767 97 736 q 35 851 35 799 m 71 851 q 92 794 71 815 q 149 772 113 772 q 206 794 185 772 q 226 851 226 815 q 206 908 226 888 q 149 929 185 929 q 92 908 113 929 q 71 851 71 888 z "},"":{"ha":386,"x_min":25,"x_max":372,"o":"m 90 1042 q 94 984 90 1013 q 111 933 99 956 q 144 897 124 911 q 199 883 165 883 q 254 897 233 883 q 287 933 275 911 q 303 984 299 956 q 307 1042 307 1013 l 372 1042 q 366 974 372 1010 q 342 908 360 938 q 293 858 324 878 q 215 838 263 838 l 190 838 q 111 858 143 838 q 60 908 79 878 q 33 974 40 938 q 25 1042 25 1010 l 90 1042 z "},"":{"ha":276,"x_min":29,"x_max":243,"o":"m 192 -101 q 174 -76 192 -87 q 138 -53 157 -65 q 103 -26 118 -40 q 92 13 88 -11 l 138 11 q 140 -19 125 -8 q 178 -40 156 -29 q 222 -64 201 -50 q 243 -104 243 -78 q 217 -151 243 -132 q 143 -169 192 -169 q 56 -140 83 -169 q 29 -72 29 -111 l 83 -72 q 101 -108 83 -93 q 144 -124 118 -124 q 178 -119 164 -124 q 192 -101 192 -114 z "},"":{"ha":942,"x_min":-17,"x_max":950,"o":"m 818 825 q 802 750 814 796 q 774 649 790 704 q 740 533 758 593 q 705 417 722 474 q 673 310 688 360 q 650 228 658 261 q 626 58 622 115 q 663 -7 631 1 q 707 3 688 -14 q 740 51 726 21 q 760 119 753 82 q 767 189 767 156 q 758 245 767 222 q 731 269 749 268 q 701 267 714 272 q 669 238 689 261 l 664 243 q 712 300 685 272 q 768 350 739 328 q 826 386 797 372 q 876 400 854 400 q 903 393 892 400 q 943 335 936 374 q 938 249 950 296 q 897 153 925 203 q 828 64 868 104 q 742 -2 789 24 q 647 -28 696 -28 q 587 -17 618 -28 q 527 11 556 -7 q 475 53 499 29 q 438 104 451 78 l 640 678 l 625 678 q 515 381 571 514 q 407 153 460 247 q 306 7 354 58 q 217 -44 257 -44 q 112 -24 156 -44 q 40 29 68 -3 q -3 102 11 61 q -17 182 -17 143 q 36 341 -17 264 q 168 491 89 418 q 339 633 247 564 q 510 764 431 701 q 644 883 590 826 q 699 992 697 940 q 692 1017 699 1011 q 672 1024 685 1024 q 608 996 646 1024 q 527 926 571 968 q 437 834 483 883 q 344 743 390 785 q 254 673 297 701 q 176 644 211 644 q 131 658 150 644 q 99 694 111 672 q 80 742 86 717 q 74 792 74 768 q 88 926 74 865 q 121 1017 103 988 l 124 1013 q 110 947 107 975 q 127 901 113 919 q 165 875 142 883 q 214 867 189 867 q 351 894 288 867 q 472 954 414 921 q 584 1015 529 988 q 694 1042 639 1042 q 747 1030 721 1042 q 791 992 772 1018 q 818 925 810 967 q 818 825 826 883 m 665 869 l 658 876 q 490 717 572 786 q 344 583 408 649 q 238 447 279 518 q 193 282 197 376 q 212 206 190 235 q 278 178 233 178 q 365 208 325 178 q 442 291 406 239 q 508 412 478 343 q 567 558 539 481 q 619 715 594 635 q 665 869 643 794 m 389 1246 l 454 1246 l 599 1042 l 533 1042 l 389 1246 z "},"":{"ha":942,"x_min":-17,"x_max":950,"o":"m 818 825 q 802 750 814 796 q 774 649 790 704 q 740 533 758 593 q 705 417 722 474 q 673 310 688 360 q 650 228 658 261 q 626 58 622 115 q 663 -7 631 1 q 707 3 688 -14 q 740 51 726 21 q 760 119 753 82 q 767 189 767 156 q 758 245 767 222 q 731 269 749 268 q 701 267 714 272 q 669 238 689 261 l 664 243 q 712 300 685 272 q 768 350 739 328 q 826 386 797 372 q 876 400 854 400 q 903 393 892 400 q 943 335 936 374 q 938 249 950 296 q 897 153 925 203 q 828 64 868 104 q 742 -2 789 24 q 647 -28 696 -28 q 587 -17 618 -28 q 527 11 556 -7 q 475 53 499 29 q 438 104 451 78 l 640 678 l 625 678 q 515 381 571 514 q 407 153 460 247 q 306 7 354 58 q 217 -44 257 -44 q 112 -24 156 -44 q 40 29 68 -3 q -3 102 11 61 q -17 182 -17 143 q 36 341 -17 264 q 168 491 89 418 q 339 633 247 564 q 510 764 431 701 q 644 883 590 826 q 699 992 697 940 q 692 1017 699 1011 q 672 1024 685 1024 q 608 996 646 1024 q 527 926 571 968 q 437 834 483 883 q 344 743 390 785 q 254 673 297 701 q 176 644 211 644 q 131 658 150 644 q 99 694 111 672 q 80 742 86 717 q 74 792 74 768 q 88 926 74 865 q 121 1017 103 988 l 124 1013 q 110 947 107 975 q 127 901 113 919 q 165 875 142 883 q 214 867 189 867 q 351 894 288 867 q 472 954 414 921 q 584 1015 529 988 q 694 1042 639 1042 q 747 1030 721 1042 q 791 992 772 1018 q 818 925 810 967 q 818 825 826 883 m 665 869 l 658 876 q 490 717 572 786 q 344 583 408 649 q 238 447 279 518 q 193 282 197 376 q 212 206 190 235 q 278 178 233 178 q 365 208 325 178 q 442 291 406 239 q 508 412 478 343 q 567 558 539 481 q 619 715 594 635 q 665 869 643 794 m 389 1042 l 533 1246 l 599 1246 l 454 1042 l 389 1042 z "},"":{"ha":942,"x_min":-17,"x_max":950,"o":"m 818 825 q 802 750 814 796 q 774 649 790 704 q 740 533 758 593 q 705 417 722 474 q 673 310 688 360 q 650 228 658 261 q 626 58 622 115 q 663 -7 631 1 q 707 3 688 -14 q 740 51 726 21 q 760 119 753 82 q 767 189 767 156 q 758 245 767 222 q 731 269 749 268 q 701 267 714 272 q 669 238 689 261 l 664 243 q 712 300 685 272 q 768 350 739 328 q 826 386 797 372 q 876 400 854 400 q 903 393 892 400 q 943 335 936 374 q 938 249 950 296 q 897 153 925 203 q 828 64 868 104 q 742 -2 789 24 q 647 -28 696 -28 q 587 -17 618 -28 q 527 11 556 -7 q 475 53 499 29 q 438 104 451 78 l 640 678 l 625 678 q 515 381 571 514 q 407 153 460 247 q 306 7 354 58 q 217 -44 257 -44 q 112 -24 156 -44 q 40 29 68 -3 q -3 102 11 61 q -17 182 -17 143 q 36 341 -17 264 q 168 491 89 418 q 339 633 247 564 q 510 764 431 701 q 644 883 590 826 q 699 992 697 940 q 692 1017 699 1011 q 672 1024 685 1024 q 608 996 646 1024 q 527 926 571 968 q 437 834 483 883 q 344 743 390 785 q 254 673 297 701 q 176 644 211 644 q 131 658 150 644 q 99 694 111 672 q 80 742 86 717 q 74 792 74 768 q 88 926 74 865 q 121 1017 103 988 l 124 1013 q 110 947 107 975 q 127 901 113 919 q 165 875 142 883 q 214 867 189 867 q 351 894 288 867 q 472 954 414 921 q 584 1015 529 988 q 694 1042 639 1042 q 747 1030 721 1042 q 791 992 772 1018 q 818 925 810 967 q 818 825 826 883 m 665 869 l 658 876 q 490 717 572 786 q 344 583 408 649 q 238 447 279 518 q 193 282 197 376 q 212 206 190 235 q 278 178 233 178 q 365 208 325 178 q 442 291 406 239 q 508 412 478 343 q 567 558 539 481 q 619 715 594 635 q 665 869 643 794 m 294 1042 l 439 1246 l 504 1246 l 649 1042 l 583 1042 l 472 1200 l 360 1042 l 294 1042 z "},"":{"ha":942,"x_min":-17,"x_max":950,"o":"m 818 825 q 802 750 814 796 q 774 649 790 704 q 740 533 758 593 q 705 417 722 474 q 673 310 688 360 q 650 228 658 261 q 626 58 622 115 q 663 -7 631 1 q 707 3 688 -14 q 740 51 726 21 q 760 119 753 82 q 767 189 767 156 q 758 245 767 222 q 731 269 749 268 q 701 267 714 272 q 669 238 689 261 l 664 243 q 712 300 685 272 q 768 350 739 328 q 826 386 797 372 q 876 400 854 400 q 903 393 892 400 q 943 335 936 374 q 938 249 950 296 q 897 153 925 203 q 828 64 868 104 q 742 -2 789 24 q 647 -28 696 -28 q 587 -17 618 -28 q 527 11 556 -7 q 475 53 499 29 q 438 104 451 78 l 640 678 l 625 678 q 515 381 571 514 q 407 153 460 247 q 306 7 354 58 q 217 -44 257 -44 q 112 -24 156 -44 q 40 29 68 -3 q -3 102 11 61 q -17 182 -17 143 q 36 341 -17 264 q 168 491 89 418 q 339 633 247 564 q 510 764 431 701 q 644 883 590 826 q 699 992 697 940 q 692 1017 699 1011 q 672 1024 685 1024 q 608 996 646 1024 q 527 926 571 968 q 437 834 483 883 q 344 743 390 785 q 254 673 297 701 q 176 644 211 644 q 131 658 150 644 q 99 694 111 672 q 80 742 86 717 q 74 792 74 768 q 88 926 74 865 q 121 1017 103 988 l 124 1013 q 110 947 107 975 q 127 901 113 919 q 165 875 142 883 q 214 867 189 867 q 351 894 288 867 q 472 954 414 921 q 584 1015 529 988 q 694 1042 639 1042 q 747 1030 721 1042 q 791 992 772 1018 q 818 925 810 967 q 818 825 826 883 m 665 869 l 658 876 q 490 717 572 786 q 344 583 408 649 q 238 447 279 518 q 193 282 197 376 q 212 206 190 235 q 278 178 233 178 q 365 208 325 178 q 442 291 406 239 q 508 412 478 343 q 567 558 539 481 q 619 715 594 635 q 665 869 643 794 m 349 1097 q 369 1116 356 1111 q 400 1121 382 1121 q 470 1111 432 1121 q 540 1101 508 1101 q 569 1106 557 1101 q 589 1125 582 1111 l 589 1085 q 539 1060 575 1060 q 469 1070 507 1060 q 399 1081 431 1081 q 369 1076 382 1081 q 349 1057 356 1071 l 349 1097 z "},"":{"ha":942,"x_min":-17,"x_max":950,"o":"m 818 825 q 802 750 814 796 q 774 649 790 704 q 740 533 758 593 q 705 417 722 474 q 673 310 688 360 q 650 228 658 261 q 626 58 622 115 q 663 -7 631 1 q 707 3 688 -14 q 740 51 726 21 q 760 119 753 82 q 767 189 767 156 q 758 245 767 222 q 731 269 749 268 q 701 267 714 272 q 669 238 689 261 l 664 243 q 712 300 685 272 q 768 350 739 328 q 826 386 797 372 q 876 400 854 400 q 903 393 892 400 q 943 335 936 374 q 938 249 950 296 q 897 153 925 203 q 828 64 868 104 q 742 -2 789 24 q 647 -28 696 -28 q 587 -17 618 -28 q 527 11 556 -7 q 475 53 499 29 q 438 104 451 78 l 640 678 l 625 678 q 515 381 571 514 q 407 153 460 247 q 306 7 354 58 q 217 -44 257 -44 q 112 -24 156 -44 q 40 29 68 -3 q -3 102 11 61 q -17 182 -17 143 q 36 341 -17 264 q 168 491 89 418 q 339 633 247 564 q 510 764 431 701 q 644 883 590 826 q 699 992 697 940 q 692 1017 699 1011 q 672 1024 685 1024 q 608 996 646 1024 q 527 926 571 968 q 437 834 483 883 q 344 743 390 785 q 254 673 297 701 q 176 644 211 644 q 131 658 150 644 q 99 694 111 672 q 80 742 86 717 q 74 792 74 768 q 88 926 74 865 q 121 1017 103 988 l 124 1013 q 110 947 107 975 q 127 901 113 919 q 165 875 142 883 q 214 867 189 867 q 351 894 288 867 q 472 954 414 921 q 584 1015 529 988 q 694 1042 639 1042 q 747 1030 721 1042 q 791 992 772 1018 q 818 925 810 967 q 818 825 826 883 m 665 869 l 658 876 q 490 717 572 786 q 344 583 408 649 q 238 447 279 518 q 193 282 197 376 q 212 206 190 235 q 278 178 233 178 q 365 208 325 178 q 442 291 406 239 q 508 412 478 343 q 567 558 539 481 q 619 715 594 635 q 665 869 643 794 m 351 1097 q 366 1135 351 1121 q 404 1150 381 1150 q 442 1135 428 1150 q 457 1097 457 1121 q 442 1059 457 1074 q 404 1044 428 1044 q 366 1059 381 1044 q 351 1097 351 1074 m 485 1097 q 499 1135 485 1121 q 538 1150 514 1150 q 576 1135 561 1150 q 590 1097 590 1121 q 576 1059 590 1074 q 538 1044 561 1044 q 499 1059 514 1044 q 485 1097 485 1074 z "},"":{"ha":942,"x_min":-17,"x_max":950,"o":"m 818 825 q 802 750 814 796 q 774 649 790 704 q 740 533 758 593 q 705 417 722 474 q 673 310 688 360 q 650 228 658 261 q 626 58 622 115 q 663 -7 631 1 q 707 3 688 -14 q 740 51 726 21 q 760 119 753 82 q 767 189 767 156 q 758 245 767 222 q 731 269 749 268 q 701 267 714 272 q 669 238 689 261 l 664 243 q 712 300 685 272 q 768 350 739 328 q 826 386 797 372 q 876 400 854 400 q 903 393 892 400 q 943 335 936 374 q 938 249 950 296 q 897 153 925 203 q 828 64 868 104 q 742 -2 789 24 q 647 -28 696 -28 q 587 -17 618 -28 q 527 11 556 -7 q 475 53 499 29 q 438 104 451 78 l 640 678 l 625 678 q 515 381 571 514 q 407 153 460 247 q 306 7 354 58 q 217 -44 257 -44 q 112 -24 156 -44 q 40 29 68 -3 q -3 102 11 61 q -17 182 -17 143 q 36 341 -17 264 q 168 491 89 418 q 339 633 247 564 q 510 764 431 701 q 644 883 590 826 q 699 992 697 940 q 692 1017 699 1011 q 672 1024 685 1024 q 608 996 646 1024 q 527 926 571 968 q 437 834 483 883 q 344 743 390 785 q 254 673 297 701 q 176 644 211 644 q 131 658 150 644 q 99 694 111 672 q 80 742 86 717 q 74 792 74 768 q 88 926 74 865 q 121 1017 103 988 l 124 1013 q 110 947 107 975 q 127 901 113 919 q 165 875 142 883 q 214 867 189 867 q 351 894 288 867 q 472 954 414 921 q 584 1015 529 988 q 694 1042 639 1042 q 747 1030 721 1042 q 791 992 772 1018 q 818 925 810 967 q 818 825 826 883 m 665 869 l 658 876 q 490 717 572 786 q 344 583 408 649 q 238 447 279 518 q 193 282 197 376 q 212 206 190 235 q 278 178 233 178 q 365 208 325 178 q 442 291 406 239 q 508 412 478 343 q 567 558 539 481 q 619 715 594 635 q 665 869 643 794 m 358 1157 q 390 1240 358 1208 q 472 1271 421 1271 q 555 1240 524 1271 q 586 1157 586 1208 q 555 1073 586 1104 q 472 1042 524 1042 q 390 1073 421 1042 q 358 1157 358 1104 m 394 1157 q 415 1099 394 1121 q 472 1078 436 1078 q 529 1099 508 1078 q 550 1157 550 1121 q 529 1214 550 1193 q 472 1235 508 1235 q 415 1214 436 1235 q 394 1157 394 1193 z "},"":{"ha":733,"x_min":15,"x_max":714,"o":"m 667 1003 q 699 915 685 974 q 714 788 714 857 q 710 739 714 764 q 699 693 707 714 q 676 658 690 672 q 640 644 663 644 q 568 667 597 644 q 517 723 539 689 q 477 797 494 757 q 440 870 460 836 q 397 926 421 904 q 338 949 372 949 q 304 942 325 949 q 263 919 283 936 q 228 872 243 901 q 210 797 213 843 l 210 364 q 228 235 210 297 q 281 126 247 174 q 360 51 314 79 q 463 22 407 22 q 530 42 490 22 q 606 106 569 63 q 668 219 642 150 q 694 385 694 288 l 706 385 l 706 0 l 464 0 q 286 30 368 0 q 144 115 204 60 q 49 246 83 169 q 15 415 15 322 l 15 814 q 23 882 15 844 q 51 953 31 919 q 107 1008 71 986 q 200 1031 143 1031 q 320 1001 272 1031 q 408 936 368 972 q 485 870 447 900 q 574 840 524 840 q 617 856 597 840 q 647 894 636 871 q 662 947 658 918 q 658 1000 665 975 l 667 1003 m 479 -97 q 462 -72 479 -83 q 425 -49 444 -61 q 390 -22 406 -36 q 379 17 375 -7 l 425 15 q 428 -15 413 -4 q 466 -35 443 -25 q 510 -60 489 -46 q 531 -100 531 -74 q 505 -147 531 -128 q 431 -165 479 -165 q 344 -136 371 -165 q 317 -68 317 -107 l 371 -68 q 388 -104 371 -89 q 432 -119 406 -119 q 465 -115 451 -119 q 479 -97 479 -110 z "},"":{"ha":840,"x_min":4,"x_max":815,"o":"m 740 1024 q 773 937 758 996 q 788 807 788 878 q 784 758 788 783 q 772 711 781 732 q 750 676 764 690 q 714 663 736 663 q 665 684 688 663 q 618 738 642 706 q 569 807 594 769 q 512 876 543 844 q 443 930 481 908 q 357 951 406 951 q 307 945 339 951 q 247 919 275 939 q 205 860 219 899 q 207 754 190 821 q 249 664 221 697 q 312 613 276 631 q 387 590 347 594 q 465 585 426 585 q 532 586 500 585 q 588 585 564 588 q 626 574 611 582 q 640 544 640 565 q 623 513 640 521 q 579 504 606 504 q 501 512 543 504 q 428 521 458 519 q 335 495 374 522 q 276 426 296 468 q 258 333 256 385 q 292 233 261 282 q 365 142 325 181 q 448 78 406 103 q 533 40 490 53 q 615 28 576 28 q 711 50 669 28 q 772 115 753 72 q 779 185 790 156 q 741 235 768 215 q 676 264 714 254 q 604 274 639 274 q 546 265 571 274 q 515 238 521 256 q 515 208 511 221 q 538 172 518 196 l 531 168 q 477 233 503 196 q 434 308 451 271 q 413 376 417 344 q 422 426 408 408 q 460 454 438 446 q 511 463 483 463 q 622 435 563 463 q 728 359 682 407 q 794 248 774 311 q 789 113 815 185 q 743 47 775 75 q 667 1 711 19 q 569 -28 624 -18 q 458 -37 515 -37 q 297 -18 378 -37 q 150 40 215 1 q 44 139 85 79 q 4 279 4 199 q 36 401 4 353 q 118 478 68 449 q 228 522 168 508 q 344 541 288 536 q 447 545 401 546 q 511 544 492 544 l 511 553 q 449 557 493 554 q 351 569 406 560 q 238 596 297 578 q 131 644 179 614 q 51 719 82 674 q 19 828 19 764 q 27 890 19 854 q 55 958 35 925 q 111 1013 75 990 q 206 1035 147 1035 q 338 1008 279 1035 q 447 948 396 981 q 547 888 499 915 q 646 860 594 860 q 692 875 669 860 q 728 914 714 890 q 744 967 742 938 q 735 1022 747 996 l 740 1024 m 353 1246 l 418 1246 l 563 1042 l 497 1042 l 353 1246 z "},"":{"ha":840,"x_min":4,"x_max":815,"o":"m 740 1024 q 773 937 758 996 q 788 807 788 878 q 784 758 788 783 q 772 711 781 732 q 750 676 764 690 q 714 663 736 663 q 665 684 688 663 q 618 738 642 706 q 569 807 594 769 q 512 876 543 844 q 443 930 481 908 q 357 951 406 951 q 307 945 339 951 q 247 919 275 939 q 205 860 219 899 q 207 754 190 821 q 249 664 221 697 q 312 613 276 631 q 387 590 347 594 q 465 585 426 585 q 532 586 500 585 q 588 585 564 588 q 626 574 611 582 q 640 544 640 565 q 623 513 640 521 q 579 504 606 504 q 501 512 543 504 q 428 521 458 519 q 335 495 374 522 q 276 426 296 468 q 258 333 256 385 q 292 233 261 282 q 365 142 325 181 q 448 78 406 103 q 533 40 490 53 q 615 28 576 28 q 711 50 669 28 q 772 115 753 72 q 779 185 790 156 q 741 235 768 215 q 676 264 714 254 q 604 274 639 274 q 546 265 571 274 q 515 238 521 256 q 515 208 511 221 q 538 172 518 196 l 531 168 q 477 233 503 196 q 434 308 451 271 q 413 376 417 344 q 422 426 408 408 q 460 454 438 446 q 511 463 483 463 q 622 435 563 463 q 728 359 682 407 q 794 248 774 311 q 789 113 815 185 q 743 47 775 75 q 667 1 711 19 q 569 -28 624 -18 q 458 -37 515 -37 q 297 -18 378 -37 q 150 40 215 1 q 44 139 85 79 q 4 279 4 199 q 36 401 4 353 q 118 478 68 449 q 228 522 168 508 q 344 541 288 536 q 447 545 401 546 q 511 544 492 544 l 511 553 q 449 557 493 554 q 351 569 406 560 q 238 596 297 578 q 131 644 179 614 q 51 719 82 674 q 19 828 19 764 q 27 890 19 854 q 55 958 35 925 q 111 1013 75 990 q 206 1035 147 1035 q 338 1008 279 1035 q 447 948 396 981 q 547 888 499 915 q 646 860 594 860 q 692 875 669 860 q 728 914 714 890 q 744 967 742 938 q 735 1022 747 996 l 740 1024 m 353 1042 l 497 1246 l 563 1246 l 418 1042 l 353 1042 z "},"":{"ha":840,"x_min":4,"x_max":815,"o":"m 740 1024 q 773 937 758 996 q 788 807 788 878 q 784 758 788 783 q 772 711 781 732 q 750 676 764 690 q 714 663 736 663 q 665 684 688 663 q 618 738 642 706 q 569 807 594 769 q 512 876 543 844 q 443 930 481 908 q 357 951 406 951 q 307 945 339 951 q 247 919 275 939 q 205 860 219 899 q 207 754 190 821 q 249 664 221 697 q 312 613 276 631 q 387 590 347 594 q 465 585 426 585 q 532 586 500 585 q 588 585 564 588 q 626 574 611 582 q 640 544 640 565 q 623 513 640 521 q 579 504 606 504 q 501 512 543 504 q 428 521 458 519 q 335 495 374 522 q 276 426 296 468 q 258 333 256 385 q 292 233 261 282 q 365 142 325 181 q 448 78 406 103 q 533 40 490 53 q 615 28 576 28 q 711 50 669 28 q 772 115 753 72 q 779 185 790 156 q 741 235 768 215 q 676 264 714 254 q 604 274 639 274 q 546 265 571 274 q 515 238 521 256 q 515 208 511 221 q 538 172 518 196 l 531 168 q 477 233 503 196 q 434 308 451 271 q 413 376 417 344 q 422 426 408 408 q 460 454 438 446 q 511 463 483 463 q 622 435 563 463 q 728 359 682 407 q 794 248 774 311 q 789 113 815 185 q 743 47 775 75 q 667 1 711 19 q 569 -28 624 -18 q 458 -37 515 -37 q 297 -18 378 -37 q 150 40 215 1 q 44 139 85 79 q 4 279 4 199 q 36 401 4 353 q 118 478 68 449 q 228 522 168 508 q 344 541 288 536 q 447 545 401 546 q 511 544 492 544 l 511 553 q 449 557 493 554 q 351 569 406 560 q 238 596 297 578 q 131 644 179 614 q 51 719 82 674 q 19 828 19 764 q 27 890 19 854 q 55 958 35 925 q 111 1013 75 990 q 206 1035 147 1035 q 338 1008 279 1035 q 447 948 396 981 q 547 888 499 915 q 646 860 594 860 q 692 875 669 860 q 728 914 714 890 q 744 967 742 938 q 735 1022 747 996 l 740 1024 m 258 1042 l 403 1246 l 468 1246 l 613 1042 l 547 1042 l 436 1200 l 324 1042 l 258 1042 z "},"":{"ha":840,"x_min":4,"x_max":815,"o":"m 740 1024 q 773 937 758 996 q 788 807 788 878 q 784 758 788 783 q 772 711 781 732 q 750 676 764 690 q 714 663 736 663 q 665 684 688 663 q 618 738 642 706 q 569 807 594 769 q 512 876 543 844 q 443 930 481 908 q 357 951 406 951 q 307 945 339 951 q 247 919 275 939 q 205 860 219 899 q 207 754 190 821 q 249 664 221 697 q 312 613 276 631 q 387 590 347 594 q 465 585 426 585 q 532 586 500 585 q 588 585 564 588 q 626 574 611 582 q 640 544 640 565 q 623 513 640 521 q 579 504 606 504 q 501 512 543 504 q 428 521 458 519 q 335 495 374 522 q 276 426 296 468 q 258 333 256 385 q 292 233 261 282 q 365 142 325 181 q 448 78 406 103 q 533 40 490 53 q 615 28 576 28 q 711 50 669 28 q 772 115 753 72 q 779 185 790 156 q 741 235 768 215 q 676 264 714 254 q 604 274 639 274 q 546 265 571 274 q 515 238 521 256 q 515 208 511 221 q 538 172 518 196 l 531 168 q 477 233 503 196 q 434 308 451 271 q 413 376 417 344 q 422 426 408 408 q 460 454 438 446 q 511 463 483 463 q 622 435 563 463 q 728 359 682 407 q 794 248 774 311 q 789 113 815 185 q 743 47 775 75 q 667 1 711 19 q 569 -28 624 -18 q 458 -37 515 -37 q 297 -18 378 -37 q 150 40 215 1 q 44 139 85 79 q 4 279 4 199 q 36 401 4 353 q 118 478 68 449 q 228 522 168 508 q 344 541 288 536 q 447 545 401 546 q 511 544 492 544 l 511 553 q 449 557 493 554 q 351 569 406 560 q 238 596 297 578 q 131 644 179 614 q 51 719 82 674 q 19 828 19 764 q 27 890 19 854 q 55 958 35 925 q 111 1013 75 990 q 206 1035 147 1035 q 338 1008 279 1035 q 447 948 396 981 q 547 888 499 915 q 646 860 594 860 q 692 875 669 860 q 728 914 714 890 q 744 967 742 938 q 735 1022 747 996 l 740 1024 m 315 1097 q 330 1135 315 1121 q 368 1150 344 1150 q 406 1135 392 1150 q 421 1097 421 1121 q 406 1059 421 1074 q 368 1044 392 1044 q 330 1059 344 1044 q 315 1097 315 1074 m 449 1097 q 463 1135 449 1121 q 501 1150 478 1150 q 540 1135 525 1150 q 554 1097 554 1121 q 540 1059 554 1074 q 501 1044 525 1044 q 463 1059 478 1044 q 449 1097 449 1074 z "},"":{"ha":554,"x_min":-7,"x_max":560,"o":"m 39 104 l 193 294 l 193 833 q 136 840 163 840 q 67 813 99 840 q 7 746 35 785 l -7 757 l 271 1043 l 514 893 l 413 768 l 413 450 l 242 260 l 413 157 q 453 166 433 157 q 489 189 472 175 q 520 219 506 203 q 546 251 535 236 l 560 240 l 282 -46 l 39 104 m 188 1283 l 253 1283 l 397 1079 l 332 1079 l 188 1283 z "},"":{"ha":554,"x_min":-7,"x_max":560,"o":"m 39 104 l 193 294 l 193 833 q 136 840 163 840 q 67 813 99 840 q 7 746 35 785 l -7 757 l 271 1043 l 514 893 l 413 768 l 413 450 l 242 260 l 413 157 q 453 166 433 157 q 489 189 472 175 q 520 219 506 203 q 546 251 535 236 l 560 240 l 282 -46 l 39 104 m 188 1079 l 332 1283 l 397 1283 l 253 1079 l 188 1079 z "},"":{"ha":554,"x_min":-7,"x_max":560,"o":"m 39 104 l 193 294 l 193 833 q 136 840 163 840 q 67 813 99 840 q 7 746 35 785 l -7 757 l 271 1043 l 514 893 l 413 768 l 413 450 l 242 260 l 413 157 q 453 166 433 157 q 489 189 472 175 q 520 219 506 203 q 546 251 535 236 l 560 240 l 282 -46 l 39 104 m 93 1079 l 238 1283 l 303 1283 l 447 1079 l 382 1079 l 271 1238 l 158 1079 l 93 1079 z "},"":{"ha":554,"x_min":-7,"x_max":560,"o":"m 39 104 l 193 294 l 193 833 q 136 840 163 840 q 67 813 99 840 q 7 746 35 785 l -7 757 l 271 1043 l 514 893 l 413 768 l 413 450 l 242 260 l 413 157 q 453 166 433 157 q 489 189 472 175 q 520 219 506 203 q 546 251 535 236 l 560 240 l 282 -46 l 39 104 m 150 1135 q 165 1173 150 1158 q 203 1188 179 1188 q 241 1173 226 1188 q 256 1135 256 1158 q 241 1097 256 1111 q 203 1082 226 1082 q 165 1097 179 1082 q 150 1135 150 1111 m 283 1135 q 298 1173 283 1158 q 336 1188 313 1188 q 374 1173 360 1188 q 389 1135 389 1158 q 374 1097 389 1111 q 336 1082 360 1082 q 298 1097 313 1082 q 283 1135 283 1111 z "},"":{"ha":1265,"x_min":-56,"x_max":1568,"o":"m 107 1032 l 115 1029 q 112 973 108 1003 q 128 918 115 943 q 160 877 140 893 q 204 861 179 861 q 304 890 257 861 q 403 953 351 918 q 517 1015 456 988 q 663 1043 579 1043 q 776 1017 722 1043 q 860 944 829 992 q 894 832 892 897 q 856 685 897 767 q 802 596 836 646 q 730 490 768 546 q 653 377 692 435 q 583 264 614 319 q 531 157 551 208 q 511 65 511 106 q 517 23 511 44 q 535 -16 522 1 q 566 -44 547 -33 q 610 -56 585 -56 q 721 -12 676 -56 q 794 102 765 31 q 844 267 824 174 q 883 462 864 361 q 925 663 903 563 q 982 851 947 764 q 1049 940 1003 906 q 1149 995 1094 975 q 1262 1023 1204 1015 q 1364 1031 1319 1031 l 1568 1031 l 1565 1018 q 1510 1018 1536 1018 q 1458 1015 1483 1018 q 1408 1006 1433 1013 q 1356 983 1383 999 q 1260 893 1304 956 q 1178 749 1217 831 q 1104 574 1139 667 q 1037 393 1069 481 q 973 232 1004 306 q 910 114 942 158 q 864 57 892 89 q 798 -3 836 25 q 713 -52 760 -32 q 608 -72 665 -72 q 526 -58 574 -72 q 433 -12 478 -43 q 358 65 389 18 q 326 179 326 113 q 358 297 326 244 q 440 393 390 349 q 551 476 490 438 q 669 551 611 514 q 776 629 728 589 q 849 717 824 669 q 869 778 864 747 q 869 835 874 810 q 833 882 865 863 q 758 915 801 901 q 668 938 715 929 q 583 950 621 946 q 474 719 526 838 q 372 488 422 600 q 273 277 322 376 q 172 103 224 178 q 63 -14 119 29 q -56 -57 7 -57 l -3 294 q 104 323 50 292 q 211 407 158 354 q 314 529 264 460 q 409 672 364 599 q 492 819 454 746 q 558 951 529 892 q 535 953 544 953 q 519 954 525 954 q 425 932 467 954 q 349 877 383 910 q 288 806 315 844 q 235 734 260 767 q 185 679 210 701 q 135 657 161 657 q 96 672 111 657 q 72 708 81 686 q 60 756 64 729 q 57 806 57 782 q 72 941 57 879 q 107 1032 88 1003 m 721 1097 q 741 1116 728 1111 q 772 1121 754 1121 q 842 1111 804 1121 q 913 1101 881 1101 q 942 1106 929 1101 q 961 1125 954 1111 l 961 1085 q 911 1060 947 1060 q 841 1070 879 1060 q 771 1081 803 1081 q 741 1076 754 1081 q 721 1057 728 1071 l 721 1097 z "},"":{"ha":1065,"x_min":-81,"x_max":1086,"o":"m 1004 558 q 1005 527 1004 549 q 1004 479 1006 506 q 951 267 1000 367 q 829 93 901 168 q 673 -25 757 18 q 515 -68 589 -68 q 385 -41 440 -68 q 292 34 331 -14 q 232 148 254 82 q 201 292 210 214 q 42 388 106 322 q -51 533 -21 454 q -76 690 -81 611 q -28 822 -71 768 q 15 861 -7 850 q 61 872 38 872 q 122 856 92 872 q 178 813 151 839 q 226 756 204 788 q 261 696 247 725 l 257 696 q 216 743 242 728 q 158 758 190 758 q 92 742 126 758 q 31 689 58 725 q -17 570 -14 635 q 12 447 -21 506 q 110 346 44 389 q 271 290 176 303 q 220 307 242 297 q 199 328 199 317 q 226 515 199 424 q 302 685 254 606 q 415 831 350 765 q 552 945 479 897 q 703 1019 625 993 q 858 1046 782 1046 q 934 1032 894 1046 q 1008 989 974 1018 q 1064 915 1042 960 q 1086 806 1086 869 q 1056 667 1086 733 q 973 542 1025 600 q 851 435 921 483 q 703 353 782 388 q 542 297 625 318 q 381 272 460 276 q 383 156 379 214 q 402 52 388 99 q 444 -24 417 6 q 515 -53 471 -53 q 610 -30 568 -53 q 683 31 651 -7 q 737 117 714 68 q 776 217 760 165 q 803 319 793 268 q 822 411 814 369 q 872 444 850 428 q 915 476 894 460 q 958 513 936 493 q 1004 558 979 533 m 456 444 q 461 532 456 483 q 481 631 467 581 q 518 727 496 681 q 573 810 540 774 q 649 866 606 846 q 747 883 693 886 q 863 852 814 879 q 942 785 911 825 q 988 694 972 744 q 1003 596 1003 644 q 1057 696 1038 644 q 1076 803 1076 747 q 1056 903 1076 861 q 1001 974 1035 946 q 924 1016 967 1003 q 839 1029 882 1029 q 701 993 767 1029 q 579 893 635 957 q 481 743 524 829 q 411 557 439 657 q 382 384 383 450 q 381 286 381 318 q 614 329 497 290 q 828 433 731 368 q 862 607 851 532 q 865 733 872 682 q 831 814 858 785 q 749 849 803 843 q 652 838 694 856 q 578 786 610 819 q 524 708 546 753 q 488 616 501 664 q 469 522 474 568 q 465 442 464 476 l 456 444 m 521 1289 l 586 1289 l 731 1085 l 665 1085 l 521 1289 z "},"":{"ha":1065,"x_min":-81,"x_max":1086,"o":"m 1004 558 q 1005 527 1004 549 q 1004 479 1006 506 q 951 267 1000 367 q 829 93 901 168 q 673 -25 757 18 q 515 -68 589 -68 q 385 -41 440 -68 q 292 34 331 -14 q 232 148 254 82 q 201 292 210 214 q 42 388 106 322 q -51 533 -21 454 q -76 690 -81 611 q -28 822 -71 768 q 15 861 -7 850 q 61 872 38 872 q 122 856 92 872 q 178 813 151 839 q 226 756 204 788 q 261 696 247 725 l 257 696 q 216 743 242 728 q 158 758 190 758 q 92 742 126 758 q 31 689 58 725 q -17 570 -14 635 q 12 447 -21 506 q 110 346 44 389 q 271 290 176 303 q 220 307 242 297 q 199 328 199 317 q 226 515 199 424 q 302 685 254 606 q 415 831 350 765 q 552 945 479 897 q 703 1019 625 993 q 858 1046 782 1046 q 934 1032 894 1046 q 1008 989 974 1018 q 1064 915 1042 960 q 1086 806 1086 869 q 1056 667 1086 733 q 973 542 1025 600 q 851 435 921 483 q 703 353 782 388 q 542 297 625 318 q 381 272 460 276 q 383 156 379 214 q 402 52 388 99 q 444 -24 417 6 q 515 -53 471 -53 q 610 -30 568 -53 q 683 31 651 -7 q 737 117 714 68 q 776 217 760 165 q 803 319 793 268 q 822 411 814 369 q 872 444 850 428 q 915 476 894 460 q 958 513 936 493 q 1004 558 979 533 m 456 444 q 461 532 456 483 q 481 631 467 581 q 518 727 496 681 q 573 810 540 774 q 649 866 606 846 q 747 883 693 886 q 863 852 814 879 q 942 785 911 825 q 988 694 972 744 q 1003 596 1003 644 q 1057 696 1038 644 q 1076 803 1076 747 q 1056 903 1076 861 q 1001 974 1035 946 q 924 1016 967 1003 q 839 1029 882 1029 q 701 993 767 1029 q 579 893 635 957 q 481 743 524 829 q 411 557 439 657 q 382 384 383 450 q 381 286 381 318 q 614 329 497 290 q 828 433 731 368 q 862 607 851 532 q 865 733 872 682 q 831 814 858 785 q 749 849 803 843 q 652 838 694 856 q 578 786 610 819 q 524 708 546 753 q 488 616 501 664 q 469 522 474 568 q 465 442 464 476 l 456 444 m 521 1085 l 665 1289 l 731 1289 l 586 1085 l 521 1085 z "},"":{"ha":1065,"x_min":-81,"x_max":1086,"o":"m 1004 558 q 1005 527 1004 549 q 1004 479 1006 506 q 951 267 1000 367 q 829 93 901 168 q 673 -25 757 18 q 515 -68 589 -68 q 385 -41 440 -68 q 292 34 331 -14 q 232 148 254 82 q 201 292 210 214 q 42 388 106 322 q -51 533 -21 454 q -76 690 -81 611 q -28 822 -71 768 q 15 861 -7 850 q 61 872 38 872 q 122 856 92 872 q 178 813 151 839 q 226 756 204 788 q 261 696 247 725 l 257 696 q 216 743 242 728 q 158 758 190 758 q 92 742 126 758 q 31 689 58 725 q -17 570 -14 635 q 12 447 -21 506 q 110 346 44 389 q 271 290 176 303 q 220 307 242 297 q 199 328 199 317 q 226 515 199 424 q 302 685 254 606 q 415 831 350 765 q 552 945 479 897 q 703 1019 625 993 q 858 1046 782 1046 q 934 1032 894 1046 q 1008 989 974 1018 q 1064 915 1042 960 q 1086 806 1086 869 q 1056 667 1086 733 q 973 542 1025 600 q 851 435 921 483 q 703 353 782 388 q 542 297 625 318 q 381 272 460 276 q 383 156 379 214 q 402 52 388 99 q 444 -24 417 6 q 515 -53 471 -53 q 610 -30 568 -53 q 683 31 651 -7 q 737 117 714 68 q 776 217 760 165 q 803 319 793 268 q 822 411 814 369 q 872 444 850 428 q 915 476 894 460 q 958 513 936 493 q 1004 558 979 533 m 456 444 q 461 532 456 483 q 481 631 467 581 q 518 727 496 681 q 573 810 540 774 q 649 866 606 846 q 747 883 693 886 q 863 852 814 879 q 942 785 911 825 q 988 694 972 744 q 1003 596 1003 644 q 1057 696 1038 644 q 1076 803 1076 747 q 1056 903 1076 861 q 1001 974 1035 946 q 924 1016 967 1003 q 839 1029 882 1029 q 701 993 767 1029 q 579 893 635 957 q 481 743 524 829 q 411 557 439 657 q 382 384 383 450 q 381 286 381 318 q 614 329 497 290 q 828 433 731 368 q 862 607 851 532 q 865 733 872 682 q 831 814 858 785 q 749 849 803 843 q 652 838 694 856 q 578 786 610 819 q 524 708 546 753 q 488 616 501 664 q 469 522 474 568 q 465 442 464 476 l 456 444 m 426 1085 l 571 1289 l 636 1289 l 781 1085 l 715 1085 l 604 1243 l 492 1085 l 426 1085 z "},"":{"ha":1065,"x_min":-81,"x_max":1086,"o":"m 1004 558 q 1005 527 1004 549 q 1004 479 1006 506 q 951 267 1000 367 q 829 93 901 168 q 673 -25 757 18 q 515 -68 589 -68 q 385 -41 440 -68 q 292 34 331 -14 q 232 148 254 82 q 201 292 210 214 q 42 388 106 322 q -51 533 -21 454 q -76 690 -81 611 q -28 822 -71 768 q 15 861 -7 850 q 61 872 38 872 q 122 856 92 872 q 178 813 151 839 q 226 756 204 788 q 261 696 247 725 l 257 696 q 216 743 242 728 q 158 758 190 758 q 92 742 126 758 q 31 689 58 725 q -17 570 -14 635 q 12 447 -21 506 q 110 346 44 389 q 271 290 176 303 q 220 307 242 297 q 199 328 199 317 q 226 515 199 424 q 302 685 254 606 q 415 831 350 765 q 552 945 479 897 q 703 1019 625 993 q 858 1046 782 1046 q 934 1032 894 1046 q 1008 989 974 1018 q 1064 915 1042 960 q 1086 806 1086 869 q 1056 667 1086 733 q 973 542 1025 600 q 851 435 921 483 q 703 353 782 388 q 542 297 625 318 q 381 272 460 276 q 383 156 379 214 q 402 52 388 99 q 444 -24 417 6 q 515 -53 471 -53 q 610 -30 568 -53 q 683 31 651 -7 q 737 117 714 68 q 776 217 760 165 q 803 319 793 268 q 822 411 814 369 q 872 444 850 428 q 915 476 894 460 q 958 513 936 493 q 1004 558 979 533 m 456 444 q 461 532 456 483 q 481 631 467 581 q 518 727 496 681 q 573 810 540 774 q 649 866 606 846 q 747 883 693 886 q 863 852 814 879 q 942 785 911 825 q 988 694 972 744 q 1003 596 1003 644 q 1057 696 1038 644 q 1076 803 1076 747 q 1056 903 1076 861 q 1001 974 1035 946 q 924 1016 967 1003 q 839 1029 882 1029 q 701 993 767 1029 q 579 893 635 957 q 481 743 524 829 q 411 557 439 657 q 382 384 383 450 q 381 286 381 318 q 614 329 497 290 q 828 433 731 368 q 862 607 851 532 q 865 733 872 682 q 831 814 858 785 q 749 849 803 843 q 652 838 694 856 q 578 786 610 819 q 524 708 546 753 q 488 616 501 664 q 469 522 474 568 q 465 442 464 476 l 456 444 m 481 1140 q 501 1159 488 1154 q 532 1164 514 1164 q 602 1154 564 1164 q 672 1144 640 1144 q 701 1149 689 1144 q 721 1168 714 1154 l 721 1128 q 671 1103 707 1103 q 601 1113 639 1103 q 531 1124 563 1124 q 501 1119 514 1124 q 481 1100 488 1114 l 481 1140 z "},"":{"ha":1065,"x_min":-81,"x_max":1086,"o":"m 1004 558 q 1005 527 1004 549 q 1004 479 1006 506 q 951 267 1000 367 q 829 93 901 168 q 673 -25 757 18 q 515 -68 589 -68 q 385 -41 440 -68 q 292 34 331 -14 q 232 148 254 82 q 201 292 210 214 q 42 388 106 322 q -51 533 -21 454 q -76 690 -81 611 q -28 822 -71 768 q 15 861 -7 850 q 61 872 38 872 q 122 856 92 872 q 178 813 151 839 q 226 756 204 788 q 261 696 247 725 l 257 696 q 216 743 242 728 q 158 758 190 758 q 92 742 126 758 q 31 689 58 725 q -17 570 -14 635 q 12 447 -21 506 q 110 346 44 389 q 271 290 176 303 q 220 307 242 297 q 199 328 199 317 q 226 515 199 424 q 302 685 254 606 q 415 831 350 765 q 552 945 479 897 q 703 1019 625 993 q 858 1046 782 1046 q 934 1032 894 1046 q 1008 989 974 1018 q 1064 915 1042 960 q 1086 806 1086 869 q 1056 667 1086 733 q 973 542 1025 600 q 851 435 921 483 q 703 353 782 388 q 542 297 625 318 q 381 272 460 276 q 383 156 379 214 q 402 52 388 99 q 444 -24 417 6 q 515 -53 471 -53 q 610 -30 568 -53 q 683 31 651 -7 q 737 117 714 68 q 776 217 760 165 q 803 319 793 268 q 822 411 814 369 q 872 444 850 428 q 915 476 894 460 q 958 513 936 493 q 1004 558 979 533 m 456 444 q 461 532 456 483 q 481 631 467 581 q 518 727 496 681 q 573 810 540 774 q 649 866 606 846 q 747 883 693 886 q 863 852 814 879 q 942 785 911 825 q 988 694 972 744 q 1003 596 1003 644 q 1057 696 1038 644 q 1076 803 1076 747 q 1056 903 1076 861 q 1001 974 1035 946 q 924 1016 967 1003 q 839 1029 882 1029 q 701 993 767 1029 q 579 893 635 957 q 481 743 524 829 q 411 557 439 657 q 382 384 383 450 q 381 286 381 318 q 614 329 497 290 q 828 433 731 368 q 862 607 851 532 q 865 733 872 682 q 831 814 858 785 q 749 849 803 843 q 652 838 694 856 q 578 786 610 819 q 524 708 546 753 q 488 616 501 664 q 469 522 474 568 q 465 442 464 476 l 456 444 m 483 1140 q 498 1178 483 1164 q 536 1193 513 1193 q 574 1178 560 1193 q 589 1140 589 1164 q 574 1102 589 1117 q 536 1088 560 1088 q 498 1102 513 1088 q 483 1140 483 1117 m 617 1140 q 631 1178 617 1164 q 669 1193 646 1193 q 708 1178 693 1193 q 722 1140 722 1164 q 708 1102 722 1117 q 669 1088 693 1088 q 631 1102 646 1088 q 617 1140 617 1117 z "},"":{"ha":967,"x_min":64,"x_max":967,"o":"m 532 1043 q 447 1002 489 1043 q 367 897 404 961 q 297 753 329 832 q 240 598 264 674 q 203 458 217 522 q 190 360 190 394 q 197 276 190 315 q 220 208 203 238 q 267 159 238 178 q 342 136 296 140 q 426 161 386 132 q 499 244 465 190 q 562 375 533 299 q 613 542 590 451 q 653 733 636 632 q 679 938 669 833 l 929 1129 l 935 1121 q 861 999 885 1079 q 833 816 838 918 q 840 598 829 714 q 869 369 850 482 l 674 158 l 967 158 l 843 0 l 438 0 l 578 158 l 654 158 l 688 201 q 695 309 696 257 q 690 413 694 361 q 681 516 686 464 q 675 622 675 568 q 675 702 675 667 q 676 765 675 738 q 638 577 661 672 q 585 394 615 482 q 519 229 556 306 q 438 96 482 153 q 345 6 394 39 q 240 -26 296 -26 q 171 -6 199 -26 q 128 49 143 15 q 106 122 113 82 q 100 199 100 161 q 123 375 100 286 q 181 552 146 464 q 262 725 217 640 q 350 889 307 810 q 304 838 328 863 q 257 795 281 814 q 209 765 233 776 q 161 753 185 753 q 118 767 136 753 q 88 804 100 782 q 69 853 75 826 q 64 903 64 879 q 78 1039 64 978 q 108 1131 92 1100 l 111 1125 q 97 1060 94 1088 q 114 1014 100 1032 q 151 988 128 996 q 196 979 174 979 q 315 990 265 979 q 402 1015 364 1001 q 471 1040 440 1029 q 532 1051 501 1051 l 532 1043 m 432 1301 l 497 1301 l 642 1097 l 576 1097 l 432 1301 z "},"":{"ha":967,"x_min":64,"x_max":967,"o":"m 532 1043 q 447 1002 489 1043 q 367 897 404 961 q 297 753 329 832 q 240 598 264 674 q 203 458 217 522 q 190 360 190 394 q 197 276 190 315 q 220 208 203 238 q 267 159 238 178 q 342 136 296 140 q 426 161 386 132 q 499 244 465 190 q 562 375 533 299 q 613 542 590 451 q 653 733 636 632 q 679 938 669 833 l 929 1129 l 935 1121 q 861 999 885 1079 q 833 816 838 918 q 840 598 829 714 q 869 369 850 482 l 674 158 l 967 158 l 843 0 l 438 0 l 578 158 l 654 158 l 688 201 q 695 309 696 257 q 690 413 694 361 q 681 516 686 464 q 675 622 675 568 q 675 702 675 667 q 676 765 675 738 q 638 577 661 672 q 585 394 615 482 q 519 229 556 306 q 438 96 482 153 q 345 6 394 39 q 240 -26 296 -26 q 171 -6 199 -26 q 128 49 143 15 q 106 122 113 82 q 100 199 100 161 q 123 375 100 286 q 181 552 146 464 q 262 725 217 640 q 350 889 307 810 q 304 838 328 863 q 257 795 281 814 q 209 765 233 776 q 161 753 185 753 q 118 767 136 753 q 88 804 100 782 q 69 853 75 826 q 64 903 64 879 q 78 1039 64 978 q 108 1131 92 1100 l 111 1125 q 97 1060 94 1088 q 114 1014 100 1032 q 151 988 128 996 q 196 979 174 979 q 315 990 265 979 q 402 1015 364 1001 q 471 1040 440 1029 q 532 1051 501 1051 l 532 1043 m 432 1097 l 576 1301 l 642 1301 l 497 1097 l 432 1097 z "},"":{"ha":967,"x_min":64,"x_max":967,"o":"m 532 1043 q 447 1002 489 1043 q 367 897 404 961 q 297 753 329 832 q 240 598 264 674 q 203 458 217 522 q 190 360 190 394 q 197 276 190 315 q 220 208 203 238 q 267 159 238 178 q 342 136 296 140 q 426 161 386 132 q 499 244 465 190 q 562 375 533 299 q 613 542 590 451 q 653 733 636 632 q 679 938 669 833 l 929 1129 l 935 1121 q 861 999 885 1079 q 833 816 838 918 q 840 598 829 714 q 869 369 850 482 l 674 158 l 967 158 l 843 0 l 438 0 l 578 158 l 654 158 l 688 201 q 695 309 696 257 q 690 413 694 361 q 681 516 686 464 q 675 622 675 568 q 675 702 675 667 q 676 765 675 738 q 638 577 661 672 q 585 394 615 482 q 519 229 556 306 q 438 96 482 153 q 345 6 394 39 q 240 -26 296 -26 q 171 -6 199 -26 q 128 49 143 15 q 106 122 113 82 q 100 199 100 161 q 123 375 100 286 q 181 552 146 464 q 262 725 217 640 q 350 889 307 810 q 304 838 328 863 q 257 795 281 814 q 209 765 233 776 q 161 753 185 753 q 118 767 136 753 q 88 804 100 782 q 69 853 75 826 q 64 903 64 879 q 78 1039 64 978 q 108 1131 92 1100 l 111 1125 q 97 1060 94 1088 q 114 1014 100 1032 q 151 988 128 996 q 196 979 174 979 q 315 990 265 979 q 402 1015 364 1001 q 471 1040 440 1029 q 532 1051 501 1051 l 532 1043 m 338 1097 l 482 1301 l 547 1301 l 692 1097 l 626 1097 l 515 1256 l 403 1097 l 338 1097 z "},"":{"ha":967,"x_min":64,"x_max":967,"o":"m 532 1043 q 447 1002 489 1043 q 367 897 404 961 q 297 753 329 832 q 240 598 264 674 q 203 458 217 522 q 190 360 190 394 q 197 276 190 315 q 220 208 203 238 q 267 159 238 178 q 342 136 296 140 q 426 161 386 132 q 499 244 465 190 q 562 375 533 299 q 613 542 590 451 q 653 733 636 632 q 679 938 669 833 l 929 1129 l 935 1121 q 861 999 885 1079 q 833 816 838 918 q 840 598 829 714 q 869 369 850 482 l 674 158 l 967 158 l 843 0 l 438 0 l 578 158 l 654 158 l 688 201 q 695 309 696 257 q 690 413 694 361 q 681 516 686 464 q 675 622 675 568 q 675 702 675 667 q 676 765 675 738 q 638 577 661 672 q 585 394 615 482 q 519 229 556 306 q 438 96 482 153 q 345 6 394 39 q 240 -26 296 -26 q 171 -6 199 -26 q 128 49 143 15 q 106 122 113 82 q 100 199 100 161 q 123 375 100 286 q 181 552 146 464 q 262 725 217 640 q 350 889 307 810 q 304 838 328 863 q 257 795 281 814 q 209 765 233 776 q 161 753 185 753 q 118 767 136 753 q 88 804 100 782 q 69 853 75 826 q 64 903 64 879 q 78 1039 64 978 q 108 1131 92 1100 l 111 1125 q 97 1060 94 1088 q 114 1014 100 1032 q 151 988 128 996 q 196 979 174 979 q 315 990 265 979 q 402 1015 364 1001 q 471 1040 440 1029 q 532 1051 501 1051 l 532 1043 m 394 1153 q 409 1191 394 1176 q 447 1206 424 1206 q 485 1191 471 1206 q 500 1153 500 1176 q 485 1115 500 1129 q 447 1100 471 1100 q 409 1115 424 1100 q 394 1153 394 1129 m 528 1153 q 542 1191 528 1176 q 581 1206 557 1206 q 619 1191 604 1206 q 633 1153 633 1176 q 619 1115 633 1129 q 581 1100 604 1100 q 542 1115 557 1100 q 528 1153 528 1129 z "},"":{"ha":671,"x_min":10,"x_max":642,"o":"m 436 201 l 210 201 l 178 0 l 10 0 l 161 972 l 490 972 l 642 0 l 468 0 l 436 201 m 417 333 l 324 932 l 229 333 l 417 333 m 240 1246 l 306 1246 l 450 1042 l 385 1042 l 240 1246 z "},"":{"ha":671,"x_min":10,"x_max":642,"o":"m 436 201 l 210 201 l 178 0 l 10 0 l 161 972 l 490 972 l 642 0 l 468 0 l 436 201 m 417 333 l 324 932 l 229 333 l 417 333 m 240 1042 l 385 1246 l 450 1246 l 306 1042 l 240 1042 z "},"":{"ha":671,"x_min":10,"x_max":642,"o":"m 436 201 l 210 201 l 178 0 l 10 0 l 161 972 l 490 972 l 642 0 l 468 0 l 436 201 m 417 333 l 324 932 l 229 333 l 417 333 m 146 1042 l 290 1246 l 356 1246 l 500 1042 l 435 1042 l 324 1200 l 211 1042 l 146 1042 z "},"":{"ha":671,"x_min":10,"x_max":642,"o":"m 436 201 l 210 201 l 178 0 l 10 0 l 161 972 l 490 972 l 642 0 l 468 0 l 436 201 m 417 333 l 324 932 l 229 333 l 417 333 m 200 1097 q 220 1116 207 1111 q 251 1121 233 1121 q 322 1111 283 1121 q 392 1101 360 1101 q 421 1106 408 1101 q 440 1125 433 1111 l 440 1085 q 390 1060 426 1060 q 320 1070 358 1060 q 250 1081 282 1081 q 220 1076 233 1081 q 200 1057 207 1071 l 200 1097 z "},"":{"ha":671,"x_min":10,"x_max":642,"o":"m 436 201 l 210 201 l 178 0 l 10 0 l 161 972 l 490 972 l 642 0 l 468 0 l 436 201 m 417 333 l 324 932 l 229 333 l 417 333 m 203 1097 q 217 1135 203 1121 q 256 1150 232 1150 q 294 1135 279 1150 q 308 1097 308 1121 q 294 1059 308 1074 q 256 1044 279 1044 q 217 1059 232 1044 q 203 1097 203 1074 m 336 1097 q 351 1135 336 1121 q 389 1150 365 1150 q 427 1135 413 1150 q 442 1097 442 1121 q 427 1059 442 1074 q 389 1044 413 1044 q 351 1059 365 1044 q 336 1097 336 1074 z "},"":{"ha":671,"x_min":10,"x_max":642,"o":"m 436 201 l 210 201 l 178 0 l 10 0 l 161 972 l 490 972 l 642 0 l 468 0 l 436 201 m 417 333 l 324 932 l 229 333 l 417 333 m 210 1157 q 241 1240 210 1208 q 324 1271 272 1271 q 406 1240 375 1271 q 438 1157 438 1208 q 406 1073 438 1104 q 324 1042 375 1042 q 241 1073 272 1042 q 210 1157 210 1104 m 246 1157 q 267 1099 246 1121 q 324 1078 288 1078 q 381 1099 360 1078 q 401 1157 401 1121 q 381 1214 401 1193 q 324 1235 360 1235 q 267 1214 288 1235 q 246 1157 246 1193 z "},"":{"ha":872,"x_min":13,"x_max":853,"o":"m 853 1025 q 825 983 844 1013 q 781 917 806 954 q 730 838 757 879 q 681 757 703 796 q 645 685 660 718 q 631 633 631 653 q 647 534 631 581 q 686 444 663 488 q 738 360 710 401 q 790 277 767 319 q 830 189 814 235 q 846 90 846 143 q 835 5 846 46 q 804 -76 824 -36 l 590 -290 q 508 -324 571 -311 q 367 -337 444 -337 q 183 -321 251 -337 q 113 -261 115 -304 q 125 -208 110 -246 q 167 -123 140 -171 q 225 -24 193 -75 q 288 70 257 28 q 344 140 319 113 q 379 168 369 168 q 447 167 417 168 q 503 163 476 165 q 555 160 529 161 q 611 156 581 158 l 556 -160 q 415 -16 468 -61 q 322 29 361 29 q 266 1 292 29 q 210 -81 240 -28 q 202 -140 189 -118 q 245 -174 215 -162 q 312 -188 275 -185 q 374 -193 349 -192 q 604 -186 524 -200 q 715 -142 685 -172 q 735 -65 746 -111 q 690 38 724 -19 q 613 219 635 132 q 591 393 592 306 q 604 572 590 481 q 632 768 618 664 q 550 531 590 638 q 463 347 510 424 q 361 228 417 271 q 233 186 306 186 q 138 213 169 186 q 97 285 106 240 q 98 389 88 331 q 130 510 108 447 q 181 637 151 574 q 238 754 210 700 q 290 849 267 808 q 325 908 314 890 q 275 856 303 883 q 219 806 247 829 q 162 769 190 783 q 110 754 133 754 q 67 767 85 754 q 36 801 49 781 q 18 847 24 822 q 13 894 13 872 q 26 1022 13 964 q 57 1107 40 1079 l 60 1103 q 46 1041 43 1067 q 63 999 49 1015 q 99 974 76 982 q 144 965 122 965 q 264 976 214 965 q 352 999 314 986 q 421 1023 390 1013 q 482 1033 451 1033 l 388 857 q 308 820 347 857 q 240 728 268 783 q 197 607 211 672 q 190 483 182 542 q 233 384 199 425 q 336 338 267 343 q 434 358 394 332 q 500 450 474 383 q 541 630 526 517 q 563 913 556 743 l 853 1025 m 353 1094 l 497 1299 l 563 1299 l 418 1094 l 353 1094 z "},"":{"ha":982,"x_min":35,"x_max":972,"o":"m 176 481 q 200 340 176 404 q 267 231 224 276 q 371 161 310 186 q 507 136 432 136 q 701 188 618 136 q 810 338 783 239 l 972 338 q 910 192 953 257 q 808 83 868 128 q 671 13 747 38 q 507 -11 594 -11 q 313 24 400 -11 q 165 124 226 60 q 69 280 103 189 q 35 481 35 371 q 69 682 35 592 q 165 837 103 772 q 313 937 226 901 q 507 972 400 972 q 686 940 607 972 q 820 850 765 908 q 905 711 875 792 q 935 533 935 631 l 792 533 q 507 825 778 825 q 371 800 432 825 q 267 730 310 775 q 200 622 224 685 q 176 481 176 558 m 547 -101 q 530 -76 547 -87 q 493 -53 513 -65 q 458 -26 474 -40 q 447 13 443 -11 l 493 11 q 496 -19 481 -8 q 534 -40 511 -29 q 578 -64 557 -50 q 599 -104 599 -78 q 573 -151 599 -132 q 499 -169 547 -169 q 412 -140 439 -169 q 385 -72 385 -111 l 439 -72 q 456 -108 439 -93 q 500 -124 474 -124 q 533 -119 519 -124 q 547 -101 547 -114 z "},"":{"ha":818,"x_min":35,"x_max":790,"o":"m 204 125 l 790 125 l 790 0 l 35 0 l 35 972 l 786 972 l 786 847 l 206 847 l 206 549 l 786 549 l 786 424 l 206 424 l 204 125 m 372 1246 l 438 1246 l 582 1042 l 517 1042 l 372 1246 z "},"":{"ha":818,"x_min":35,"x_max":790,"o":"m 204 125 l 790 125 l 790 0 l 35 0 l 35 972 l 786 972 l 786 847 l 206 847 l 206 549 l 786 549 l 786 424 l 206 424 l 204 125 m 372 1042 l 517 1246 l 582 1246 l 438 1042 l 372 1042 z "},"":{"ha":818,"x_min":35,"x_max":790,"o":"m 204 125 l 790 125 l 790 0 l 35 0 l 35 972 l 786 972 l 786 847 l 206 847 l 206 549 l 786 549 l 786 424 l 206 424 l 204 125 m 278 1042 l 422 1246 l 488 1246 l 632 1042 l 567 1042 l 456 1200 l 343 1042 l 278 1042 z "},"":{"ha":818,"x_min":35,"x_max":790,"o":"m 204 125 l 790 125 l 790 0 l 35 0 l 35 972 l 786 972 l 786 847 l 206 847 l 206 549 l 786 549 l 786 424 l 206 424 l 204 125 m 335 1097 q 349 1135 335 1121 q 388 1150 364 1150 q 426 1135 411 1150 q 440 1097 440 1121 q 426 1059 440 1074 q 388 1044 411 1044 q 349 1059 364 1044 q 335 1097 335 1074 m 468 1097 q 483 1135 468 1121 q 521 1150 497 1150 q 559 1135 544 1150 q 574 1097 574 1121 q 559 1059 574 1074 q 521 1044 544 1044 q 483 1059 497 1044 q 468 1097 468 1074 z "},"":{"ha":303,"x_min":63,"x_max":272,"o":"m 246 0 l 74 0 l 74 972 l 244 972 l 246 0 m 63 1246 l 128 1246 l 272 1042 l 207 1042 l 63 1246 z "},"":{"ha":303,"x_min":63,"x_max":272,"o":"m 246 0 l 74 0 l 74 972 l 244 972 l 246 0 m 63 1042 l 207 1246 l 272 1246 l 128 1042 l 63 1042 z "},"":{"ha":303,"x_min":-32,"x_max":322,"o":"m 246 0 l 74 0 l 74 972 l 244 972 l 246 0 m -32 1042 l 113 1246 l 178 1246 l 322 1042 l 257 1042 l 146 1200 l 33 1042 l -32 1042 z "},"":{"ha":303,"x_min":25,"x_max":264,"o":"m 246 0 l 74 0 l 74 972 l 244 972 l 246 0 m 25 1097 q 40 1135 25 1121 q 78 1150 54 1150 q 116 1135 101 1150 q 131 1097 131 1121 q 116 1059 131 1074 q 78 1044 101 1044 q 40 1059 54 1044 q 25 1097 25 1074 m 158 1097 q 173 1135 158 1121 q 211 1150 188 1150 q 249 1135 235 1150 q 264 1097 264 1121 q 249 1059 264 1074 q 211 1044 235 1044 q 173 1059 188 1044 q 158 1097 158 1074 z "},"":{"ha":940,"x_min":35,"x_max":911,"o":"m 732 42 l 732 972 l 911 972 l 900 0 l 581 0 l 213 908 l 203 0 l 35 0 l 35 972 l 356 972 l 732 42 m 350 1097 q 370 1116 357 1111 q 401 1121 383 1121 q 472 1111 433 1121 q 542 1101 510 1101 q 571 1106 558 1101 q 590 1125 583 1111 l 590 1085 q 540 1060 576 1060 q 470 1070 508 1060 q 400 1081 432 1081 q 370 1076 383 1081 q 350 1057 357 1071 l 350 1097 z "},"":{"ha":985,"x_min":21,"x_max":963,"o":"m 21 481 q 55 682 21 592 q 151 837 89 772 q 299 937 213 901 q 493 972 386 972 q 685 937 599 972 q 833 837 772 901 q 928 682 894 772 q 963 481 963 592 q 928 280 963 371 q 833 124 894 189 q 685 24 772 60 q 493 -11 599 -11 q 299 24 386 -11 q 151 124 213 60 q 55 280 89 189 q 21 481 21 371 m 163 481 q 186 340 163 404 q 253 231 210 276 q 357 161 296 186 q 493 136 418 136 q 627 161 567 136 q 731 231 688 186 q 797 340 774 276 q 821 481 821 404 q 797 622 821 558 q 731 730 774 685 q 627 800 688 775 q 493 825 567 825 q 357 800 418 825 q 253 730 296 775 q 186 622 210 685 q 163 481 163 558 m 414 1246 l 479 1246 l 624 1042 l 558 1042 l 414 1246 z "},"":{"ha":985,"x_min":21,"x_max":963,"o":"m 21 481 q 55 682 21 592 q 151 837 89 772 q 299 937 213 901 q 493 972 386 972 q 685 937 599 972 q 833 837 772 901 q 928 682 894 772 q 963 481 963 592 q 928 280 963 371 q 833 124 894 189 q 685 24 772 60 q 493 -11 599 -11 q 299 24 386 -11 q 151 124 213 60 q 55 280 89 189 q 21 481 21 371 m 163 481 q 186 340 163 404 q 253 231 210 276 q 357 161 296 186 q 493 136 418 136 q 627 161 567 136 q 731 231 688 186 q 797 340 774 276 q 821 481 821 404 q 797 622 821 558 q 731 730 774 685 q 627 800 688 775 q 493 825 567 825 q 357 800 418 825 q 253 730 296 775 q 186 622 210 685 q 163 481 163 558 m 414 1042 l 558 1246 l 624 1246 l 479 1042 l 414 1042 z "},"":{"ha":985,"x_min":21,"x_max":963,"o":"m 21 481 q 55 682 21 592 q 151 837 89 772 q 299 937 213 901 q 493 972 386 972 q 685 937 599 972 q 833 837 772 901 q 928 682 894 772 q 963 481 963 592 q 928 280 963 371 q 833 124 894 189 q 685 24 772 60 q 493 -11 599 -11 q 299 24 386 -11 q 151 124 213 60 q 55 280 89 189 q 21 481 21 371 m 163 481 q 186 340 163 404 q 253 231 210 276 q 357 161 296 186 q 493 136 418 136 q 627 161 567 136 q 731 231 688 186 q 797 340 774 276 q 821 481 821 404 q 797 622 821 558 q 731 730 774 685 q 627 800 688 775 q 493 825 567 825 q 357 800 418 825 q 253 730 296 775 q 186 622 210 685 q 163 481 163 558 m 319 1042 l 464 1246 l 529 1246 l 674 1042 l 608 1042 l 497 1200 l 385 1042 l 319 1042 z "},"":{"ha":985,"x_min":21,"x_max":963,"o":"m 21 481 q 55 682 21 592 q 151 837 89 772 q 299 937 213 901 q 493 972 386 972 q 685 937 599 972 q 833 837 772 901 q 928 682 894 772 q 963 481 963 592 q 928 280 963 371 q 833 124 894 189 q 685 24 772 60 q 493 -11 599 -11 q 299 24 386 -11 q 151 124 213 60 q 55 280 89 189 q 21 481 21 371 m 163 481 q 186 340 163 404 q 253 231 210 276 q 357 161 296 186 q 493 136 418 136 q 627 161 567 136 q 731 231 688 186 q 797 340 774 276 q 821 481 821 404 q 797 622 821 558 q 731 730 774 685 q 627 800 688 775 q 493 825 567 825 q 357 800 418 825 q 253 730 296 775 q 186 622 210 685 q 163 481 163 558 m 374 1097 q 394 1116 381 1111 q 425 1121 407 1121 q 495 1111 457 1121 q 565 1101 533 1101 q 594 1106 582 1101 q 614 1125 607 1111 l 614 1085 q 564 1060 600 1060 q 494 1070 532 1060 q 424 1081 456 1081 q 394 1076 407 1081 q 374 1057 381 1071 l 374 1097 z "},"":{"ha":985,"x_min":21,"x_max":963,"o":"m 21 481 q 55 682 21 592 q 151 837 89 772 q 299 937 213 901 q 493 972 386 972 q 685 937 599 972 q 833 837 772 901 q 928 682 894 772 q 963 481 963 592 q 928 280 963 371 q 833 124 894 189 q 685 24 772 60 q 493 -11 599 -11 q 299 24 386 -11 q 151 124 213 60 q 55 280 89 189 q 21 481 21 371 m 163 481 q 186 340 163 404 q 253 231 210 276 q 357 161 296 186 q 493 136 418 136 q 627 161 567 136 q 731 231 688 186 q 797 340 774 276 q 821 481 821 404 q 797 622 821 558 q 731 730 774 685 q 627 800 688 775 q 493 825 567 825 q 357 800 418 825 q 253 730 296 775 q 186 622 210 685 q 163 481 163 558 m 376 1097 q 391 1135 376 1121 q 429 1150 406 1150 q 467 1135 453 1150 q 482 1097 482 1121 q 467 1059 482 1074 q 429 1044 453 1044 q 391 1059 406 1044 q 376 1097 376 1074 m 510 1097 q 524 1135 510 1121 q 563 1150 539 1150 q 601 1135 586 1150 q 615 1097 615 1121 q 601 1059 615 1074 q 563 1044 586 1044 q 524 1059 539 1044 q 510 1097 510 1074 z "},"":{"ha":985,"x_min":21,"x_max":963,"o":"m 21 481 q 55 682 21 592 q 151 837 89 772 q 299 937 213 901 q 493 972 386 972 q 685 937 599 972 q 833 837 772 901 q 928 682 894 772 q 963 481 963 592 q 928 280 963 371 q 833 124 894 189 q 685 24 772 60 q 493 -11 599 -11 q 299 24 386 -11 q 151 124 213 60 q 55 280 89 189 q 21 481 21 371 m 163 481 q 186 340 163 404 q 253 231 210 276 q 357 161 296 186 q 493 136 418 136 q 627 161 567 136 q 731 231 688 186 q 797 340 774 276 q 821 481 821 404 q 797 622 821 558 q 731 730 774 685 q 627 800 688 775 q 493 825 567 825 q 357 800 418 825 q 253 730 296 775 q 186 622 210 685 q 163 481 163 558 m 821 971 l 274 0 l 165 0 l 713 971 l 821 971 z "},"":{"ha":872,"x_min":61,"x_max":814,"o":"m 231 382 q 249 278 231 322 q 297 203 267 233 q 364 158 326 174 q 440 143 401 143 q 516 158 479 143 q 581 202 553 172 q 627 277 610 232 q 644 382 644 322 l 644 969 l 814 969 l 814 365 q 781 205 814 274 q 696 90 749 136 q 575 22 643 44 q 436 -1 507 -1 q 298 22 365 -1 q 178 90 231 44 q 93 205 125 136 q 61 365 61 274 l 61 969 l 231 969 l 231 382 m 333 1246 l 399 1246 l 543 1042 l 478 1042 l 333 1246 z "},"":{"ha":872,"x_min":61,"x_max":814,"o":"m 231 382 q 249 278 231 322 q 297 203 267 233 q 364 158 326 174 q 440 143 401 143 q 516 158 479 143 q 581 202 553 172 q 627 277 610 232 q 644 382 644 322 l 644 969 l 814 969 l 814 365 q 781 205 814 274 q 696 90 749 136 q 575 22 643 44 q 436 -1 507 -1 q 298 22 365 -1 q 178 90 231 44 q 93 205 125 136 q 61 365 61 274 l 61 969 l 231 969 l 231 382 m 333 1042 l 478 1246 l 543 1246 l 399 1042 l 333 1042 z "},"":{"ha":872,"x_min":61,"x_max":814,"o":"m 231 382 q 249 278 231 322 q 297 203 267 233 q 364 158 326 174 q 440 143 401 143 q 516 158 479 143 q 581 202 553 172 q 627 277 610 232 q 644 382 644 322 l 644 969 l 814 969 l 814 365 q 781 205 814 274 q 696 90 749 136 q 575 22 643 44 q 436 -1 507 -1 q 298 22 365 -1 q 178 90 231 44 q 93 205 125 136 q 61 365 61 274 l 61 969 l 231 969 l 231 382 m 239 1042 l 383 1246 l 449 1246 l 593 1042 l 528 1042 l 417 1200 l 304 1042 l 239 1042 z "},"":{"ha":872,"x_min":61,"x_max":814,"o":"m 231 382 q 249 278 231 322 q 297 203 267 233 q 364 158 326 174 q 440 143 401 143 q 516 158 479 143 q 581 202 553 172 q 627 277 610 232 q 644 382 644 322 l 644 969 l 814 969 l 814 365 q 781 205 814 274 q 696 90 749 136 q 575 22 643 44 q 436 -1 507 -1 q 298 22 365 -1 q 178 90 231 44 q 93 205 125 136 q 61 365 61 274 l 61 969 l 231 969 l 231 382 m 296 1097 q 310 1135 296 1121 q 349 1150 325 1150 q 387 1135 372 1150 q 401 1097 401 1121 q 387 1059 401 1074 q 349 1044 372 1044 q 310 1059 325 1044 q 296 1097 296 1074 m 429 1097 q 444 1135 429 1121 q 482 1150 458 1150 q 520 1135 506 1150 q 535 1097 535 1121 q 520 1059 535 1074 q 482 1044 506 1044 q 444 1059 458 1044 q 429 1097 429 1074 z "},"":{"ha":786,"x_min":54,"x_max":703,"o":"m 542 331 l 463 331 l 463 0 l 292 0 l 292 331 l 213 331 l 54 972 l 229 972 l 378 367 l 528 972 l 703 972 l 542 331 m 299 1042 l 443 1246 l 508 1246 l 364 1042 l 299 1042 z "},"":{"ha":786,"x_min":54,"x_max":703,"o":"m 542 331 l 463 331 l 463 0 l 292 0 l 292 331 l 213 331 l 54 972 l 229 972 l 378 367 l 528 972 l 703 972 l 542 331 m 261 1097 q 276 1135 261 1121 q 314 1150 290 1150 q 352 1135 338 1150 q 367 1097 367 1121 q 352 1059 367 1074 q 314 1044 338 1044 q 276 1059 290 1044 q 261 1097 261 1074 m 394 1097 q 409 1135 394 1121 q 447 1150 424 1150 q 485 1135 471 1150 q 500 1097 500 1121 q 485 1059 500 1074 q 447 1044 471 1044 q 409 1059 424 1044 q 394 1097 394 1074 z "}}}
